<?xml version="1.0" encoding="UTF-8"?>
<svg version="1.1" xmlns="http://www.w3.org/2000/svg" width="225" height="225">
<path d="M0 0 C74.25 0 148.5 0 225 0 C225 74.25 225 148.5 225 225 C150.75 225 76.5 225 0 225 C0 150.75 0 76.5 0 0 Z " fill="#FCE7D7" transform="translate(0,0)"/>
<path d="M0 0 C4.3590077 3.48720616 4.94552183 6.72760915 6 12 C10.96432365 12.29201904 14.03701574 12.14707573 18 9 C18.33 8.01 18.66 7.02 19 6 C19.66 6 20.32 6 21 6 C20.52546847 10.84022161 19.62064422 13.93202948 17 18 C18.71866217 19.0384211 20.45044598 20.05514635 22.1875 21.0625 C23.15042969 21.63097656 24.11335938 22.19945313 25.10546875 22.78515625 C28.32916541 24.13815174 29.72520421 24.04769518 33 23 C33.33 21.35 33.66 19.7 34 18 C34.66 18.33 35.32 18.66 36 19 C35.25 23.75 35.25 23.75 33 26 C34.32 26.66 35.64 27.32 37 28 C36.34 28 35.68 28 35 28 C35.42152344 28.55429687 35.84304687 29.10859375 36.27734375 29.6796875 C36.82519531 30.40414062 37.37304688 31.12859375 37.9375 31.875 C38.48277344 32.59429687 39.02804688 33.31359375 39.58984375 34.0546875 C42.22020403 37.68327314 42.64409983 40.61715975 42 45 C39.47222846 53.70550915 35.57123725 60.88744062 30 68 C31.65 68.33 33.3 68.66 35 69 C35 70.65 35 72.3 35 74 C33.515 74.495 33.515 74.495 32 75 C31.9906543 75.64437012 31.98130859 76.28874023 31.97167969 76.95263672 C31.91734956 79.92747767 31.83383021 82.90084977 31.75 85.875 C31.73582031 86.88820313 31.72164063 87.90140625 31.70703125 88.9453125 C31.33217325 100.64088196 27.3926696 109.94063654 18.9375 118.125 C11.30917111 124.6209016 3.27047777 126.73677474 -6.6640625 126.3828125 C-17.59041656 125.12896859 -27.84204669 121.15277773 -35.0625 112.625 C-35.701875 111.75875 -36.34125 110.8925 -37 110 C-37.33 110.66 -37.66 111.32 -38 112 C-41.61482201 110.65735182 -44.76806825 109.1045137 -48 107 C-48.62132813 106.61199219 -49.24265625 106.22398437 -49.8828125 105.82421875 C-58.05879155 100.30621008 -61.99853175 92.6796021 -64.26171875 83.2265625 C-65.10641102 80.67907788 -66.31192282 79.07173108 -68 77 C-71.7075148 71.6072512 -72.74563573 66.95343555 -73.60546875 60.4765625 C-73.74153517 58.06277889 -73.74153517 58.06277889 -75 57 C-76.09450832 49.49084163 -74.74768785 43.85690928 -70.85546875 37.39453125 C-68.15512765 33.90966999 -65.11901961 31.58964296 -61 30 C-60.01 30 -59.02 30 -58 30 C-58.33 29.34 -58.66 28.68 -59 28 C-59.41305603 24.94338538 -59.50878409 22.04729197 -59 19 C-56.5 16.4375 -56.5 16.4375 -54 15 C-53.34 15.33 -52.68 15.66 -52 16 C-52.33 16.66 -52.66 17.32 -53 18 C-49.56769552 17.73606499 -49.56769552 17.73606499 -46 17 C-45.34 16.01 -44.68 15.02 -44 14 C-43.34 14 -42.68 14 -42 14 C-42 14.66 -42 15.32 -42 16 C-40.08533633 15.87822312 -40.08533633 15.87822312 -38 15 C-37.319375 13.824375 -37.319375 13.824375 -36.625 12.625 C-34.41152186 9.04938147 -33.02466597 8.31842506 -29 7 C-17.53433476 6.23283262 -17.53433476 6.23283262 -14 8 C-11.66301325 8.2737932 -11.66301325 8.2737932 -9.0625 8.3125 C-8.18722656 8.34988281 -7.31195313 8.38726562 -6.41015625 8.42578125 C-3.85594594 8.22173097 -3.85594594 8.22173097 -2.2265625 6.12109375 C-1.02912257 4.05036165 -0.41859579 2.34413641 0 0 Z " fill="#252128" transform="translate(125,24)"/>
<path d="M0 0 C2.89740017 4.34610025 2.36809044 8.26192431 2.375 13.375 C2.39949219 14.32117188 2.42398438 15.26734375 2.44921875 16.2421875 C2.46786268 20.66701299 2.45183996 23.2618088 0.1015625 27.1015625 C-2 29 -2 29 -4 30 C0.18171434 39.33780873 10.77588368 44.62594177 19.88330078 48.30566406 C26.31870012 50.41665319 33.09220803 50.22043349 39.5390625 48.20703125 C45.32148138 45.20753681 47.7654538 39.89805112 50 34 C50.36124056 32.67395545 50.70546964 31.34243836 51 30 C49.824375 29.7834375 49.824375 29.7834375 48.625 29.5625 C46 29 46 29 44 28 C44 28.99 44 29.98 44 31 C43.34 31 42.68 31 42 31 C41.94581674 28.91695462 41.90712449 26.83350232 41.875 24.75 C41.85179687 23.58984375 41.82859375 22.4296875 41.8046875 21.234375 C42 18 42 18 44 14 C44.495 19.94 44.495 19.94 45 26 C45.93457031 26.38929688 46.86914062 26.77859375 47.83203125 27.1796875 C55.75351606 30.53257803 63.49436489 34.15190756 71.125 38.125 C71.91753174 38.53218262 72.71006348 38.93936523 73.52661133 39.35888672 C81.52252096 43.58195256 87.97894324 48.21263287 91.09667969 57.14038086 C91.36899414 58.23745361 91.64130859 59.33452637 91.921875 60.46484375 C92.22480469 61.67720703 92.52773437 62.88957031 92.83984375 64.13867188 C93.29037109 66.0190918 93.29037109 66.0190918 93.75 67.9375 C94.06582031 69.18724609 94.38164062 70.43699219 94.70703125 71.72460938 C96.20520716 77.83081117 97 82.60583534 97 89 C47.5 89 -2 89 -53 89 C-50.02829828 69.68393882 -46.00400388 55.0406236 -29.93676758 43.05444336 C-29.31825928 42.60335205 -28.69975098 42.15226074 -28.0625 41.6875 C-27.0892981 40.97509155 -27.0892981 40.97509155 -26.09643555 40.24829102 C-19.03130629 35.16758539 -11.56047888 30.59861576 -3.66796875 26.91015625 C-1.81448445 26.10474372 -1.81448445 26.10474372 -1 24 C-0.84693099 22.18828902 -0.75053339 20.3716206 -0.68359375 18.5546875 C-0.62075195 16.94013672 -0.62075195 16.94013672 -0.55664062 15.29296875 C-0.51732422 14.16503906 -0.47800781 13.03710938 -0.4375 11.875 C-0.37272461 10.17150391 -0.37272461 10.17150391 -0.30664062 8.43359375 C-0.2003396 5.62252232 -0.09830595 2.81136055 0 0 Z " fill="#252329" transform="translate(87,136)"/>
<path d="M0 0 C2.31 0 4.62 0 7 0 C7.17015625 0.62648438 7.3403125 1.25296875 7.515625 1.8984375 C7.75796875 2.71570313 8.0003125 3.53296875 8.25 4.375 C8.48203125 5.18710938 8.7140625 5.99921875 8.953125 6.8359375 C10.2214892 9.45785454 11.32423308 9.99382318 14 11 C13.38461538 16.53846154 13.38461538 16.53846154 11.4375 18.875 C10.963125 19.24625 10.48875 19.6175 10 20 C14.96721311 15.03278689 14.96721311 15.03278689 19.9375 14.875 C20.60652344 14.92398438 21.27554688 14.97296875 21.96484375 15.0234375 C25.40664095 14.98380068 27.95550963 13.52224519 31 12 C31.6345824 22.25908208 30.41234096 30.08991483 23.875 38.25 C17.27464888 45.27801966 9.77332893 49.02714255 0.2121582 49.34277344 C-8.5535078 49.47047103 -15.1791959 48.31018756 -23 44 C-24.093125 43.401875 -25.18625 42.80375 -26.3125 42.1875 C-31.84579552 37.68365481 -36.20332408 32.58041393 -39 26 C-39.99 27.32 -40.98 28.64 -42 30 C-45.64732701 29.74553533 -47.61439137 29.3084869 -50.5 27 C-58.97087379 16.83495146 -58.97087379 16.83495146 -59.0625 11.0625 C-58 8 -58 8 -55 6 C-49.95159423 5.25515325 -49.95159423 5.25515325 -47 6 C-44.47436035 7.9886089 -42.58205778 10.20143568 -41 13 C-41 13.99 -41 14.98 -41 16 C-40.01 16 -39.02 16 -38 16 C-37.67 12.7 -37.34 9.4 -37 6 C-33.7 6 -30.4 6 -27 6 C-26.4121875 8.1346875 -26.4121875 8.1346875 -25.8125 10.3125 C-24.80278042 13.24483633 -24.18135726 14.81297533 -22 17.0625 C-16.87237488 18.66488285 -10.8275799 19.13696395 -5.765625 17.1015625 C-3.04109228 15.40174341 -2.27748006 13.9807868 -1 11 C-0.46406266 7.341197 -0.18749883 3.69178732 0 0 Z " fill="#F9CFB4" transform="translate(123,99)"/>
<path d="M0 0 C0.66 0.70125 1.32 1.4025 2 2.125 C7.62805732 7.70549628 13.37844627 11.73151577 21 14 C22.051875 14.35320312 23.10375 14.70640625 24.1875 15.0703125 C28.56691939 16.13824469 32.459346 16.22477035 36.9375 16.125 C37.71673828 16.11597656 38.49597656 16.10695312 39.29882812 16.09765625 C41.19935447 16.07433691 43.09972008 16.03847586 45 16 C44.68289062 16.68449219 44.36578125 17.36898437 44.0390625 18.07421875 C42.85883043 21.39750379 42.58802755 24.29754535 42.375 27.8125 C42.30023438 28.97394531 42.22546875 30.13539063 42.1484375 31.33203125 C42.09945312 32.21246094 42.05046875 33.09289062 42 34 C42.66 34 43.32 34 44 34 C44 33.01 44 32.02 44 31 C46.31 31.66 48.62 32.32 51 33 C50.35491191 39.45088088 48.21840823 44.89251218 43.5 49.375 C36.74435532 53.76616904 29.88980596 54.38185094 22 53 C12.43121163 50.04601167 2.20536718 43.93570995 -4 36 C-4 34.68 -4 33.36 -4 32 C-3.18273437 31.30777344 -2.36546875 30.61554688 -1.5234375 29.90234375 C2.17734942 25.64586591 1.59332284 22.00927832 1.375 16.5625 C1.36082031 15.63373047 1.34664063 14.70496094 1.33203125 13.74804688 C1.23231473 9.07799006 0.93499749 4.59068438 0 0 Z " fill="#FACFB3" transform="translate(87,133)"/>
<path d="M0 0 C2.38126229 0.95250492 3.73308185 1.57535749 5.1171875 3.77734375 C7.56810063 9.94800556 6.11070472 16.93172394 4 23 C6.31 23.33 8.62 23.66 11 24 C11 22.68 11 21.36 11 20 C10.01 20 9.02 20 8 20 C8 19.34 8 18.68 8 18 C9.96147874 16.61061923 11.96166576 15.2739589 14 14 C14.144375 14.804375 14.28875 15.60875 14.4375 16.4375 C14.74135249 18.92103706 14.74135249 18.92103706 16 20 C16.042721 21.66611905 16.04063832 23.33382885 16 25 C16 28.38103883 16.28444697 31.75188633 16.5 35.125 C16.57154297 36.25615234 16.57154297 36.25615234 16.64453125 37.41015625 C16.76246268 39.27347291 16.88115889 41.13674114 17 43 C15.35 43.33 13.7 43.66 12 44 C11.79503906 43.44570312 11.59007812 42.89140625 11.37890625 42.3203125 C11.10949219 41.59585938 10.84007812 40.87140625 10.5625 40.125 C10.29566406 39.40570313 10.02882812 38.68640625 9.75390625 37.9453125 C9.02083146 35.96351155 9.02083146 35.96351155 8 34 C7.01 34 6.02 34 5 34 C5.05628042 38.76715198 5.05628042 38.76715198 7.625 42.578125 C9.37787717 43.80796624 11.13740456 44.94469135 13 46 C12.67 46.99 12.34 47.98 12 49 C9.69 49 7.38 49 5 49 C4.773125 48.38125 4.54625 47.7625 4.3125 47.125 C2.61545208 44.37739861 0.97485929 44.06789821 -2 43 C-3.20272819 40.59454362 -3.10071472 39.05003047 -3.0625 36.375 C-3.05347656 35.55773437 -3.04445312 34.74046875 -3.03515625 33.8984375 C-3.02355469 33.27195313 -3.01195312 32.64546875 -3 32 C-3.66386719 32.11859375 -4.32773438 32.2371875 -5.01171875 32.359375 C-12.34720791 33.43024933 -12.34720791 33.43024933 -15.75 31.1875 C-16.86375 30.1046875 -16.86375 30.1046875 -18 29 C-19.0725 28.67 -20.145 28.34 -21.25 28 C-22.1575 27.67 -23.065 27.34 -24 27 C-24.875 24.875 -24.875 24.875 -25 23 C-30.65584123 22.44821061 -33.48585827 23.78801454 -38 27 C-39.49113354 29.5908295 -39.49113354 29.5908295 -40 32 C-38.35 31.34 -36.7 30.68 -35 30 C-35.8125 32.9375 -35.8125 32.9375 -38 36 C-41.65954112 36.85821097 -45.24999436 36.98726653 -49 37 C-48.855625 36.01 -48.71125 35.02 -48.5625 34 C-47.99074821 30.00590535 -47.49180166 26.00467063 -47 22 C-45.68 22.33 -44.36 22.66 -43 23 C-43.33 23.33 -43.66 23.66 -44 24 C-37.71981905 23.47665159 -31.98772304 21.95163943 -27.3828125 17.40234375 C-26.19508958 15.98311551 -25.08849822 14.49668506 -24 13 C-23.34 13.33 -22.68 13.66 -22 14 C-22.33 15.98 -22.66 17.96 -23 20 C-18.15175132 19.58443583 -16.11963138 17.62551755 -13 14 C-11.70480005 11.83379456 -11.70480005 11.83379456 -11 10 C-10.67 10 -10.34 10 -10 10 C-9.58823246 13.60296594 -9.8464147 14.78402067 -12 17.8125 C-12.66 18.534375 -13.32 19.25625 -14 20 C-8.55691835 19.0202453 -5.60839196 17.44838982 -2.15625 13.078125 C0.13408824 8.96170627 0 4.59661267 0 0 Z " fill="#E0B1A0" transform="translate(135,64)"/>
<path d="M0 0 C3.37915447 0.85274331 4.94605636 3.03904 7.04296875 5.69921875 C8.07421875 7.5234375 8.07421875 7.5234375 8.07421875 10.5234375 C9.06421875 10.5234375 10.05421875 10.5234375 11.07421875 10.5234375 C11.40421875 7.2234375 11.73421875 3.9234375 12.07421875 0.5234375 C12.40421875 0.5234375 12.73421875 0.5234375 13.07421875 0.5234375 C13.40421875 4.1534375 13.73421875 7.7834375 14.07421875 11.5234375 C14.73421875 11.5234375 15.39421875 11.5234375 16.07421875 11.5234375 C16.28046875 12.7815625 16.48671875 14.0396875 16.69921875 15.3359375 C18.00132563 21.27090292 20.74994855 26.46476545 24.07421875 31.5234375 C24.73421875 31.8534375 25.39421875 32.1834375 26.07421875 32.5234375 C26.07421875 33.1834375 26.07421875 33.8434375 26.07421875 34.5234375 C26.67234375 34.6059375 27.27046875 34.6884375 27.88671875 34.7734375 C30.67084835 35.72799622 31.50733017 37.09476021 33.07421875 39.5234375 C30.07421875 40.5234375 30.07421875 40.5234375 28.09375 39.84375 C19.96305546 35.4402234 13.61564254 29.15565799 10.07421875 20.5234375 C9.08421875 21.8434375 8.09421875 23.1634375 7.07421875 24.5234375 C3.42689174 24.26897283 1.45982738 23.8319244 -1.42578125 21.5234375 C-9.89665504 11.35838896 -9.89665504 11.35838896 -9.98828125 5.5859375 C-8.2336432 0.52845136 -5.10325783 -0.09433009 0 0 Z " fill="#C89077" transform="translate(73.92578125,104.4765625)"/>
<path d="M0 0 C3.20320525 1.21202361 3.79650365 2.1006627 6 5 C7.53071575 9.99978352 7.62032839 13.68776687 5.375 18.4375 C1.87971162 22.2087322 -0.32659719 23.82070684 -5.5 24.375 C-10.19143151 23.87234662 -12.70999219 22.29000781 -16 19 C-17.45494438 15.21714461 -17.57341544 10.98332596 -17 7 C-12.78539659 -0.72677292 -8.34679568 -0.98750822 0 0 Z " fill="#EAC9B5" transform="translate(115,93)"/>
<path d="M0 0 C0.66 0.33 1.32 0.66 2 1 C3.1577506 4.47325181 3.06866652 7.36067448 3 11 C3.66 11 4.32 11 5 11 C4.56838233 29.60272169 4.56838233 29.60272169 0 38 C-0.556875 39.03125 -1.11375 40.0625 -1.6875 41.125 C-7.77817528 48.69719089 -14.33537118 54.00129404 -24 56 C-35.4925669 57.0049554 -35.4925669 57.0049554 -40 54 C-38.88882813 53.97421875 -37.77765625 53.9484375 -36.6328125 53.921875 C-25.00226571 53.53196579 -15.60811957 52.34732032 -6.7578125 44.0703125 C-1.72502551 38.14280782 1.15341535 31.04030441 1.0625 23.3125 C1.05347656 22.31863281 1.04445312 21.32476562 1.03515625 20.30078125 C1.02355469 19.54152344 1.01195312 18.78226563 1 18 C0.195625 18.495 -0.60875 18.99 -1.4375 19.5 C-4.87543213 20.94755037 -6.03303496 21.09928039 -9.5625 20.875 C-13.46328101 20.70368192 -13.79499352 20.83264777 -17.0625 23.5 C-17.701875 24.325 -18.34125 25.15 -19 26 C-19.66 25.67 -20.32 25.34 -21 25 C-20.195625 24.2575 -19.39125 23.515 -18.5625 22.75 C-16.23011409 20.24695171 -15.36465606 19.2819045 -15 16 C-16.175625 15.62875 -16.175625 15.62875 -17.375 15.25 C-20 14 -20 14 -21.3125 12.1875 C-22.09802451 9.68810383 -22.14472595 7.60506718 -22 5 C-21.34 5 -20.68 5 -20 5 C-19.67 7.64 -19.34 10.28 -19 13 C-18.030625 13.268125 -17.06125 13.53625 -16.0625 13.8125 C-15.051875 14.204375 -14.04125 14.59625 -13 15 C-12.67 15.99 -12.34 16.98 -12 18 C-9.69 18 -7.38 18 -5 18 C-5 17.34 -5 16.68 -5 16 C-5.763125 15.79375 -6.52625 15.5875 -7.3125 15.375 C-10.91373041 13.53251002 -11.67009547 11.76806282 -13 8 C-12.6875 5.125 -12.6875 5.125 -12 3 C-10.125 3.3125 -10.125 3.3125 -8 4 C-6 7 -6 7 -6 10 C-5.34 10.33 -4.68 10.66 -4 11 C-4.66 11 -5.32 11 -6 11 C-5.505 11.99 -5.505 11.99 -5 13 C-3.35 13 -1.7 13 0 13 C-0.185625 12.154375 -0.37125 11.30875 -0.5625 10.4375 C-1.03529632 6.7226718 -0.66064631 3.67025727 0 0 Z " fill="#3A2823" transform="translate(152,94)"/>
<path d="M0 0 C2.05922402 2.05922402 1.41427579 6.21708124 1.5625 9.0625 C1.60568359 9.82111328 1.64886719 10.57972656 1.69335938 11.36132812 C1.79973633 13.24065438 1.90039934 15.12030244 2 17 C0.35 17.33 -1.3 17.66 -3 18 C-3.30744141 17.16855469 -3.30744141 17.16855469 -3.62109375 16.3203125 C-3.89050781 15.59585938 -4.15992188 14.87140625 -4.4375 14.125 C-4.70433594 13.40570313 -4.97117188 12.68640625 -5.24609375 11.9453125 C-5.97916854 9.96351155 -5.97916854 9.96351155 -7 8 C-7.99 8 -8.98 8 -10 8 C-9.94371958 12.76715198 -9.94371958 12.76715198 -7.375 16.578125 C-5.62212283 17.80796624 -3.86259544 18.94469135 -2 20 C-2.33 20.99 -2.66 21.98 -3 23 C-5.31 23 -7.62 23 -10 23 C-10.226875 22.38125 -10.45375 21.7625 -10.6875 21.125 C-12.38454792 18.37739861 -14.02514071 18.06789821 -17 17 C-18.77320558 13.45358883 -18.75505521 9.85271763 -18 6 C-13.86696135 -0.76939552 -7.26388983 -0.99281539 0 0 Z " fill="#F9D0BB" transform="translate(150,90)"/>
<path d="M0 0 C2.38126229 0.95250492 3.73308185 1.57535749 5.1171875 3.77734375 C7.56810063 9.94800556 6.11070472 16.93172394 4 23 C6.31 23.33 8.62 23.66 11 24 C11 22.68 11 21.36 11 20 C10.01 20 9.02 20 8 20 C8 19.34 8 18.68 8 18 C9.96147874 16.61061923 11.96166576 15.2739589 14 14 C14.144375 14.804375 14.28875 15.60875 14.4375 16.4375 C14.74135249 18.92103706 14.74135249 18.92103706 16 20 C16.04063832 21.66617115 16.042721 23.33388095 16 25 C14.78763672 25.14695312 14.78763672 25.14695312 13.55078125 25.296875 C5.50447422 26.36657136 5.50447422 26.36657136 -1 31 C-1.66 31 -2.32 31 -3 31 C-2.79375 29.9275 -2.5875 28.855 -2.375 27.75 C-2.0123809 24.12380904 -2.01637931 22.91708924 -4 20 C-5.65 20.33 -7.3 20.66 -9 21 C-9 20.34 -9 19.68 -9 19 C-7.5390625 17.66796875 -7.5390625 17.66796875 -5.625 16.1875 C-2.60643295 13.65678217 -0.85009006 11.96708694 0 8 C0.13581352 5.30888018 0.09149079 2.69897819 0 0 Z " fill="#DFA59E" transform="translate(135,64)"/>
<path d="M0 0 C0.33 1.65 0.66 3.3 1 5 C2.3303125 5.12375 2.3303125 5.12375 3.6875 5.25 C7 6 7 6 9.1875 8.125 C13.60740861 11.07160574 17.93528858 9.81603056 23 9 C22.67 10.32 22.34 11.64 22 13 C19.03 13 16.06 13 13 13 C13.04640625 13.72445312 13.0928125 14.44890625 13.140625 15.1953125 C13.36926794 21.31967705 13.36687225 25.26922173 9 30 C4.34315676 32.92946755 -0.68348918 32.50558201 -6 32 C-10.23264656 30.3245774 -12.13034258 28.13292693 -14 24 C-14.1875 21.1875 -14.1875 21.1875 -14 19 C-16.97 19 -19.94 19 -23 19 C-23 18.67 -23 18.34 -23 18 C-19.37 17.67 -15.74 17.34 -12 17 C-11.57682292 19.24609375 -11.15364583 21.4921875 -10.73046875 23.73828125 C-9.90621167 26.29039274 -9.09274359 27.35316788 -7 29 C-2.49440359 30.50186547 1.34213337 30.71589695 5.75 28.8125 C8.49659982 26.59996125 9.72716734 25.3235075 11 22 C11.26526039 17.19410596 10.95767378 13.34074329 8.125 9.375 C0.69897653 6.10754967 -7.42664759 8.01354691 -15 10 C-15 7.8125 -15 7.8125 -14 5 C-9.74872787 1.24589334 -5.76251272 -0.72031409 0 0 Z " fill="#2A1813" transform="translate(110,86)"/>
<path d="M0 0 C2.46545979 0.56120388 3.3622689 1.37480533 5.0078125 3.26953125 C7.0078125 6.45703125 7.0078125 6.45703125 7.0078125 9.45703125 C4.7619546 8.41431151 2.89803207 7.37053758 0.9453125 5.83203125 C-1.0039707 4.16765775 -1.0039707 4.16765775 -3.9921875 4.45703125 C-1.5171875 5.44703125 -1.5171875 5.44703125 1.0078125 6.45703125 C1.0078125 9.45703125 1.0078125 9.45703125 0.3828125 11.51953125 C0.2590625 12.15890625 0.1353125 12.79828125 0.0078125 13.45703125 C1.90536394 15.80676943 1.90536394 15.80676943 5.1328125 15.58203125 C6.5559375 15.52015625 6.5559375 15.52015625 8.0078125 15.45703125 C8.3378125 16.44703125 8.6678125 17.43703125 9.0078125 18.45703125 C8.3478125 19.11703125 7.6878125 19.77703125 7.0078125 20.45703125 C7.0078125 20.78703125 7.0078125 21.11703125 7.0078125 21.45703125 C7.0078125 22.44703125 7.0078125 23.43703125 7.0078125 24.45703125 C3.36048549 24.20256658 1.39342113 23.76551815 -1.4921875 21.45703125 C-9.96306129 11.29198271 -9.96306129 11.29198271 -10.0546875 5.51953125 C-8.27541619 0.39104337 -5.14375627 -0.10439358 0 0 Z " fill="#E3C4AF" transform="translate(73.9921875,104.54296875)"/>
<path d="M0 0 C1.32 0.33 2.64 0.66 4 1 C3.195625 1.763125 2.39125 2.52625 1.5625 3.3125 C-1.16799024 5.79430898 -1.16799024 5.79430898 -2 9 C-2.33 9.33 -2.66 9.66 -3 10 C-2.34 10.66 -1.68 11.32 -1 12 C2.59679066 11.67673447 2.59679066 11.67673447 6 11 C4.41037538 13.64937437 3.2393036 14.88326654 0.4375 16.25 C-7.65004061 18.01455431 -14.37779463 17.09306885 -22 14 C-21.67 12.35 -21.34 10.7 -21 9 C-19.6696875 9.4021875 -19.6696875 9.4021875 -18.3125 9.8125 C-14.85621383 10.38618507 -14.85621383 10.38618507 -12.375 7.8125 C-11.59125 6.884375 -10.8075 5.95625 -10 5 C-8.70420353 3.63015802 -7.38007251 2.2848951 -6 1 C-5.34 1 -4.68 1 -4 1 C-4 1.66 -4 2.32 -4 3 C-2.68 2.67 -1.36 2.34 0 2 C0 1.34 0 0.68 0 0 Z " fill="#F7CEB2" transform="translate(133,113)"/>
<path d="M0 0 C0.66 0.33 1.32 0.66 2 1 C3.44232182 7.76781778 3.44232182 7.76781778 2.125 11.4375 C-1.2749671 13.93747581 -4.83463624 14.33175464 -9 14 C-11.6875 12.1875 -11.6875 12.1875 -14 10 C-17.17921787 8.74443113 -17.17921787 8.74443113 -20 8 C-19.67 6.35 -19.34 4.7 -19 3 C-12.85884223 1.59055396 -7.29363173 0.88557033 -1 1 C-0.67 0.67 -0.34 0.34 0 0 Z " fill="#EECEBB" transform="translate(131,83)"/>
<path d="M0 0 C2.97 0 5.94 0 9 0 C9.391875 1.423125 9.78375 2.84625 10.1875 4.3125 C11.19721958 7.24483633 11.81864274 8.81297533 14 11.0625 C19.47971575 12.77491117 25.54841703 12.81719432 31 11 C30.67 12.32 30.34 13.64 30 15 C25.0300482 16.71551636 19.85398479 15.6083674 14.7265625 15.15625 C11.27347563 15.01146648 8.38196322 15.40142244 5 16 C4.34 15.67 3.68 15.34 3 15 C3 13.68 3 12.36 3 11 C2.34 11 1.68 11 1 11 C-0.71466036 7.57067929 -0.05404056 3.78283935 0 0 Z " fill="#F3C7B2" transform="translate(87,105)"/>
<path d="M0 0 C2.31 0 4.62 0 7 0 C7.25523437 0.93972656 7.25523437 0.93972656 7.515625 1.8984375 C7.75796875 2.71570313 8.0003125 3.53296875 8.25 4.375 C8.59804687 5.59316406 8.59804687 5.59316406 8.953125 6.8359375 C10.2214892 9.45785454 11.32423308 9.99382318 14 11 C14 11.99 14 12.98 14 14 C12.68 14 11.36 14 10 14 C10 14.66 10 15.32 10 16 C8.68 16.33 7.36 16.66 6 17 C6 16.34 6 15.68 6 15 C3.03 17.31 0.06 19.62 -3 22 C-3 18.89448334 -2.4606285 17.64738916 -1 15 C-1.66 14.67 -2.32 14.34 -3 14 C-2.34 13.01 -1.68 12.02 -1 11 C-0.54227937 8.26127045 -0.54227937 8.26127045 -0.375 5.3125 C-0.30023438 4.31863281 -0.22546875 3.32476562 -0.1484375 2.30078125 C-0.09945312 1.54152344 -0.05046875 0.78226562 0 0 Z " fill="#F7C9B0" transform="translate(123,99)"/>
<path d="M0 0 C1.21042969 0.24556641 1.21042969 0.24556641 2.4453125 0.49609375 C6.62768788 1.08897993 10.65944818 1.10894252 14.875 1.0625 C16.050625 1.05573242 16.050625 1.05573242 17.25 1.04882812 C19.16670014 1.03714093 21.08336048 1.01920908 23 1 C22.68289062 1.69480469 22.36578125 2.38960937 22.0390625 3.10546875 C20.90598948 6.26188644 20.59519989 8.97280167 20.375 12.3125 C20.30023438 13.38113281 20.22546875 14.44976562 20.1484375 15.55078125 C20.09945312 16.35902344 20.05046875 17.16726562 20 18 C19.67 18 19.34 18 19 18 C19 16.35 19 14.7 19 13 C18.360625 12.7525 17.72125 12.505 17.0625 12.25 C12.31697611 10.31305147 7.58576719 8.29288359 3 6 C3 5.34 3 4.68 3 4 C1.68 3.67 0.36 3.34 -1 3 C-0.67 2.01 -0.34 1.02 0 0 Z " fill="#EFAD95" transform="translate(109,148)"/>
<path d="M0 0 C0.33 0.66 0.66 1.32 1 2 C2.27875 1.979375 3.5575 1.95875 4.875 1.9375 C8.75 1.875 8.75 1.875 11 3 C9.74194623 7.50802601 8.09592835 10.4912812 5 14 C6.65 14.33 8.3 14.66 10 15 C10 16.65 10 18.3 10 20 C9.01 20.33 8.02 20.66 7 21 C7 22.98 7 24.96 7 27 C6.34 27 5.68 27 5 27 C4.34 23.7 3.68 20.4 3 17 C2.67 18.98 2.34 20.96 2 23 C1.67 23 1.34 23 1 23 C0.92652344 21.95199219 0.92652344 21.95199219 0.8515625 20.8828125 C0.77679688 19.97273438 0.70203125 19.06265625 0.625 18.125 C0.55539063 17.22007813 0.48578125 16.31515625 0.4140625 15.3828125 C0.20431868 12.82058097 0.20431868 12.82058097 -2 11 C-1.01 11 -0.02 11 1 11 C0.73323796 9.01508358 0.73323796 9.01508358 0 7 C-0.99 6.67 -1.98 6.34 -3 6 C-2.34 5.67 -1.68 5.34 -1 5 C-0.34444881 2.47266765 -0.34444881 2.47266765 0 0 Z " fill="#201B21" transform="translate(150,78)"/>
<path d="M0 0 C0.66 0.70125 1.32 1.4025 2 2.125 C5.34985941 5.49416695 9.15652564 8.22468725 13 11 C12.401875 11.144375 11.80375 11.28875 11.1875 11.4375 C9.43849596 11.8872439 7.71322977 12.42892341 6 13 C6.03480469 13.80824219 6.06960937 14.61648437 6.10546875 15.44921875 C6.13253906 16.51785156 6.15960938 17.58648437 6.1875 18.6875 C6.22230469 19.74324219 6.25710937 20.79898438 6.29296875 21.88671875 C5.9614422 25.40974086 5.1527715 27.21494596 3 30 C2.01 30.33 1.02 30.66 0 31 C0.33 31.99 0.66 32.98 1 34 C0.0625 36.1875 0.0625 36.1875 -1 38 C-2.32 37.01 -3.64 36.02 -5 35 C-4 32 -4 32 -1.4609375 29.96484375 C2.12803256 25.64098934 1.59297749 22.00066243 1.375 16.5625 C1.36082031 15.63373047 1.34664063 14.70496094 1.33203125 13.74804688 C1.23231473 9.07799006 0.93499749 4.59068438 0 0 Z " fill="#F1D1BE" transform="translate(87,133)"/>
<path d="M0 0 C2.94680961 3.68565983 4.81837724 7.60421076 6.81640625 11.85546875 C7.81493384 14.14370974 7.81493384 14.14370974 10 15 C10 15.66 10 16.32 10 17 C10.598125 17.0825 11.19625 17.165 11.8125 17.25 C14.5966296 18.20455872 15.43311142 19.57132271 17 22 C14 23 14 23 12.01953125 22.3203125 C4.96011292 18.49698151 -2.09537889 12.76152855 -5 5 C-4.67 4.01 -4.34 3.02 -4 2 C-2.68 2 -1.36 2 0 2 C0 1.34 0 0.68 0 0 Z " fill="#DAA693" transform="translate(90,122)"/>
<path d="M0 0 C0.66 0 1.32 0 2 0 C3.81675478 2.69538681 5.41662787 5.49150633 7.05078125 8.30078125 C9.14001347 11.19388638 10.78603818 12.50118127 14 14 C16.67975596 14.01453953 16.67975596 14.01453953 19 13 C19.66 12.01 20.32 11.02 21 10 C21.42410156 10.72445312 21.84820312 11.44890625 22.28515625 12.1953125 C29.08631713 23.40601725 36.4256095 29.22768285 49 33 C44.58132773 34.52681811 41.84109027 33.20886236 37.6796875 31.44921875 C32.88449482 28.85590026 27.48715916 24.97431832 25 20 C24.67 20.66 24.34 21.32 24 22 C20.38517799 20.65735182 17.23193175 19.1045137 14 17 C13.37867187 16.62359375 12.75734375 16.2471875 12.1171875 15.859375 C5.93036791 11.76619398 3.11340465 6.62777808 0 0 Z " fill="#461F16" transform="translate(63,114)"/>
<path d="M0 0 C1.875 0.625 1.875 0.625 4 2 C4.33 3.010625 4.66 4.02125 5 5.0625 C5.33 6.031875 5.66 7.00125 6 8 C8.03243548 8.96877057 8.03243548 8.96877057 10 9 C7.93445094 13.02238501 6.18935171 15.19096176 2 17 C-1.8125 17.1875 -1.8125 17.1875 -5 17 C-5.33 16.34 -5.66 15.68 -6 15 C-5.34 15 -4.68 15 -4 15 C-3.67 14.01 -3.34 13.02 -3 12 C-2.34 12 -1.68 12 -1 12 C-1.01160156 11.21753906 -1.02320312 10.43507813 -1.03515625 9.62890625 C-1.04417969 8.61699219 -1.05320312 7.60507813 -1.0625 6.5625 C-1.07410156 5.55316406 -1.08570312 4.54382813 -1.09765625 3.50390625 C-1 1 -1 1 0 0 Z " fill="#E6C6BA" transform="translate(111,100)"/>
<path d="M0 0 C0.66 0.33 1.32 0.66 2 1 C3.1577506 4.47325181 3.06866652 7.36067448 3 11 C3.66 11 4.32 11 5 11 C4.25675659 13.39489543 3.52942646 14.70777616 1.30859375 15.93359375 C-0.44073501 16.67219923 -2.21934149 17.34049685 -4 18 C-4.433125 17.54625 -4.86625 17.0925 -5.3125 16.625 C-7.10798342 14.79975666 -7.10798342 14.79975666 -10 13 C-12.17142672 10.13061469 -13.09077242 8.81695175 -12.6875 5.1875 C-12.460625 4.465625 -12.23375 3.74375 -12 3 C-10.125 3.3125 -10.125 3.3125 -8 4 C-6 7 -6 7 -6 10 C-5.34 10.33 -4.68 10.66 -4 11 C-4.66 11 -5.32 11 -6 11 C-5.67 11.66 -5.34 12.32 -5 13 C-3.35 13 -1.7 13 0 13 C-0.185625 12.154375 -0.37125 11.30875 -0.5625 10.4375 C-1.03529632 6.7226718 -0.66064631 3.67025727 0 0 Z " fill="#E5BDA8" transform="translate(152,94)"/>
<path d="M0 0 C0.66 0.33 1.32 0.66 2 1 C1.67 2.65 1.34 4.3 1 6 C1.66 6 2.32 6 3 6 C3 7.65 3 9.3 3 11 C1.78763672 11.14695312 1.78763672 11.14695312 0.55078125 11.296875 C-7.49552578 12.36657136 -7.49552578 12.36657136 -14 17 C-14.66 17 -15.32 17 -16 17 C-15.57730231 13.58056494 -15.08008783 10.27825654 -14 7 C-11.375 5.375 -11.375 5.375 -9 5 C-9 6.32 -9 7.64 -9 9 C-6.69 9.33 -4.38 9.66 -2 10 C-2 8.68 -2 7.36 -2 6 C-2.99 6 -3.98 6 -5 6 C-5 5.34 -5 4.68 -5 4 C-3.37373596 2.61767557 -1.7074998 1.28062485 0 0 Z " fill="#583D3B" transform="translate(148,78)"/>
<path d="M0 0 C0.99 0.33 1.98 0.66 3 1 C4.125 3.5 4.125 3.5 5 6 C6.12534105 7.35618499 6.12534105 7.35618499 9.0625 7.0625 C10.031875 7.041875 11.00125 7.02125 12 7 C12.33 7.99 12.66 8.98 13 10 C12.34 10.66 11.68 11.32 11 12 C11 12.33 11 12.66 11 13 C11 13.99 11 14.98 11 16 C5.62106101 15.62472519 3.51673467 14.00517004 0 10 C-0.66 9.34 -1.32 8.68 -2 8 C-1.63723355 5.17042171 -0.90305236 2.70915709 0 0 Z " fill="#EACEBA" transform="translate(70,113)"/>
<path d="M0 0 C0.66 0.33 1.32 0.66 2 1 C0.71346847 4.3517532 -0.65113519 7.26395967 -3 10 C-6.5332655 11.13280268 -9.22512741 11.05033163 -13 11 C-13.66 14.3 -14.32 17.6 -15 21 C-15.99 21 -16.98 21 -18 21 C-18.33 19.35 -18.66 17.7 -19 16 C-18.01 16.33 -17.02 16.66 -16 17 C-16.27617533 15.05925139 -16.27617533 15.05925139 -17 13 C-17.99 12.34 -18.98 11.68 -20 11 C-20 9.68 -20 8.36 -20 7 C-11.585 6.505 -11.585 6.505 -3 6 C-2.67 4.68 -2.34 3.36 -2 2 C-1.34 1.34 -0.68 0.68 0 0 Z " fill="#201415" transform="translate(100,94)"/>
<path d="M0 0 C0.33 0 0.66 0 1 0 C1.49762792 2.73695358 1.3243949 4.46497369 -0.125 6.85546875 C-2.70032431 10.108157 -4.11602494 11.79600576 -8.25 12.75 C-9.1575 12.8325 -10.065 12.915 -11 13 C-11.99 14.485 -11.99 14.485 -13 16 C-13.33 15.01 -13.66 14.02 -14 13 C-19.66975849 12.44685283 -22.32094508 14.12058159 -27 17 C-27.66 17 -28.32 17 -29 17 C-28 14 -28 14 -25.890625 12.82421875 C-25.01921875 12.44910156 -24.1478125 12.07398437 -23.25 11.6875 C-18.48366125 9.4477305 -15.99414994 7.29161492 -13 3 C-12.34 3.33 -11.68 3.66 -11 4 C-11.33 5.98 -11.66 7.96 -12 10 C-7.15175132 9.58443583 -5.11963138 7.62551755 -2 4 C-0.70480005 1.83379456 -0.70480005 1.83379456 0 0 Z " fill="#BFA59D" transform="translate(124,74)"/>
<path d="M0 0 C0.5775 0.37125 1.155 0.7425 1.75 1.125 C0.76 1.62 0.76 1.62 -0.25 2.125 C-0.25 2.785 -0.25 3.445 -0.25 4.125 C0.41 4.455 1.07 4.785 1.75 5.125 C1.09 5.125 0.43 5.125 -0.25 5.125 C-0.476875 5.764375 -0.70375 6.40375 -0.9375 7.0625 C-2.25 9.125 -2.25 9.125 -4.75 9.9375 C-7.25 10.125 -7.25 10.125 -9.25 9.125 C-9.58 8.465 -9.91 7.805 -10.25 7.125 C-11.075 6.96 -11.9 6.795 -12.75 6.625 C-13.575 6.46 -14.4 6.295 -15.25 6.125 C-15.58 5.465 -15.91 4.805 -16.25 4.125 C-10.68037975 2.22626582 -10.68037975 2.22626582 -8.125 1.625 C-6.15352155 1.19023248 -6.15352155 1.19023248 -4.25 -0.0625 C-2.25 -0.875 -2.25 -0.875 0 0 Z " fill="#F5E9D4" transform="translate(81.25,32.875)"/>
<path d="M0 0 C0.33 0 0.66 0 1 0 C1.24979445 1.91408757 1.47408014 3.83151611 1.6875 5.75 C1.81511719 6.81734375 1.94273438 7.8846875 2.07421875 8.984375 C2 12 2 12 0.84375 14.25 C-1.3679803 16.34926943 -3.32880214 17.21047351 -6.1875 18.25 C-7.08855469 18.58515625 -7.98960938 18.9203125 -8.91796875 19.265625 C-9.94857422 19.62914062 -9.94857422 19.62914062 -11 20 C-10.649375 19.21625 -10.29875 18.4325 -9.9375 17.625 C-9.628125 16.75875 -9.31875 15.8925 -9 15 C-9.33 14.34 -9.66 13.68 -10 13 C-8.02 12.34 -6.04 11.68 -4 11 C-3.67 8.69 -3.34 6.38 -3 4 C-2.34 4 -1.68 4 -1 4 C-0.67 2.68 -0.34 1.36 0 0 Z " fill="#F0E3D2" transform="translate(85,148)"/>
<path d="M0 0 C2.89740017 4.34610025 2.36809044 8.26192431 2.375 13.375 C2.39949219 14.32117188 2.42398438 15.26734375 2.44921875 16.2421875 C2.46786268 20.66701299 2.45183996 23.2618088 0.1015625 27.1015625 C-2 29 -2 29 -4 30 C-4 30.99 -4 31.98 -4 33 C-8.455 33.495 -8.455 33.495 -13 34 C-12 31 -12 31 -9.75 29.68359375 C-8.8425 29.27238281 -7.935 28.86117187 -7 28.4375 C-3.29032372 26.97635423 -3.29032372 26.97635423 -1 24 C-0.84693099 22.18828902 -0.75053339 20.3716206 -0.68359375 18.5546875 C-0.64169922 17.47832031 -0.59980469 16.40195313 -0.55664062 15.29296875 C-0.51732422 14.16503906 -0.47800781 13.03710938 -0.4375 11.875 C-0.39431641 10.73933594 -0.35113281 9.60367188 -0.30664062 8.43359375 C-0.2003396 5.62252232 -0.09830595 2.81136055 0 0 Z " fill="#463933" transform="translate(87,136)"/>
<path d="M0 0 C2.64 0.66 5.28 1.32 8 2 C7.67 3.32 7.34 4.64 7 6 C4.36 6.33 1.72 6.66 -1 7 C-1.33 8.65 -1.66 10.3 -2 12 C-6.75 11.125 -6.75 11.125 -9 10 C-8.875 8.1875 -8.875 8.1875 -8 6 C-6.02583732 4.94991347 -4.02417134 3.95012124 -2 3 C-1.34 2.01 -0.68 1.02 0 0 Z " fill="#F6D2BF" transform="translate(138,114)"/>
<path d="M0 0 C3.0625 -0.25 3.0625 -0.25 6 0 C6.33 0.33 6.66 0.66 7 1 C7.969375 0.814375 8.93875 0.62875 9.9375 0.4375 C11.4534375 0.2209375 11.4534375 0.2209375 13 0 C13.66 0.66 14.32 1.32 15 2 C14.01 2.66 13.02 3.32 12 4 C12 3.34 12 2.68 12 2 C10.35 2.33 8.7 2.66 7 3 C6.67 4.65 6.34 6.3 6 8 C5.01 7.67 4.02 7.34 3 7 C1.68 8.65 0.36 10.3 -1 12 C-2.87643761 10.12356239 -2.17984987 7.50194299 -2.23046875 5.0078125 C-2 3 -2 3 0 0 Z " fill="#F7CFB5" transform="translate(101,95)"/>
<path d="M0 0 C0.9375 1.9375 0.9375 1.9375 1 4 C0.01 5.485 0.01 5.485 -1 7 C-1.61875 6.67 -2.2375 6.34 -2.875 6 C-7.26211512 4.59612316 -11.43151427 4.84032477 -16 5 C-15.67 3.35 -15.34 1.7 -15 0 C-3.93554688 -2.79296875 -3.93554688 -2.79296875 0 0 Z " fill="#F7CDB4" transform="translate(127,86)"/>
<path d="M0 0 C3.93846154 3.32307692 3.93846154 3.32307692 4.25 6.75 C4.1675 7.4925 4.085 8.235 4 9 C-4.20962142 12.60071115 -11.27198245 11.95444724 -20 11 C-19.67 10.34 -19.34 9.68 -19 9 C-14.80524976 7.64685476 -10.63892874 8.07222806 -6.3046875 8.35546875 C-3.84310735 8.21767606 -3.84310735 8.21767606 -2.23828125 6.12890625 C-1.03115321 4.05355994 -0.42005133 2.35228744 0 0 Z " fill="#251E21" transform="translate(125,24)"/>
<path d="M0 0 C0.33 0.99 0.66 1.98 1 3 C-0.4375 5.1875 -0.4375 5.1875 -2 7 C-0.35 7.33 1.3 7.66 3 8 C3 9.65 3 11.3 3 13 C2.01 13.33 1.02 13.66 0 14 C0 15.98 0 17.96 0 20 C-0.66 20 -1.32 20 -2 20 C-2.66 16.7 -3.32 13.4 -4 10 C-4.33 11.98 -4.66 13.96 -5 16 C-5.33 16 -5.66 16 -6 16 C-6.57934159 10.59281183 -6.34220083 7.89350344 -3 3.5 C-2.01808825 2.31806919 -1.02387802 1.14576826 0 0 Z " fill="#171417" transform="translate(157,85)"/>
<path d="M0 0 C0.33 0 0.66 0 1 0 C1.33 1.98 1.66 3.96 2 6 C3.65 4.35 5.3 2.7 7 1 C7.75 3.75 7.75 3.75 8 7 C6.0625 9.375 6.0625 9.375 4 11 C5.98 10.67 7.96 10.34 10 10 C10 13 10 13 8.5 14.6875 C8.005 15.120625 7.51 15.55375 7 16 C1.5625 13.4625 1.5625 13.4625 0.375 10.375 C-0.17401025 6.89793511 -0.05864914 3.51894857 0 0 Z " fill="#F6CEB4" transform="translate(98,100)"/>
<path d="M0 0 C0 0.99 0 1.98 0 3 C-4.55071479 7.07169218 -6.9422646 8.1316899 -13 8 C-12.67 7.34 -12.34 6.68 -12 6 C-12.99 5.67 -13.98 5.34 -15 5 C-15 7.64 -15 10.28 -15 13 C-15.33 13 -15.66 13 -16 13 C-16 10.03 -16 7.06 -16 4 C-13.36 3.34 -10.72 2.68 -8 2 C-8.33 1.34 -8.66 0.68 -9 0 C-5.93109813 -1.53445094 -3.29905734 -0.54984289 0 0 Z " fill="#402F2F" transform="translate(103,81)"/>
<path d="M0 0 C0.99 0.33 1.98 0.66 3 1 C3.66 0.67 4.32 0.34 5 0 C5.02712153 1.916588 5.04645097 3.8332873 5.0625 5.75 C5.07410156 6.81734375 5.08570312 7.8846875 5.09765625 8.984375 C5.01510087 11.53368501 4.74617558 13.57933591 4 16 C2.35 16 0.7 16 -1 16 C-1 14.35 -1 12.7 -1 11 C-0.34 11 0.32 11 1 11 C0.67 10.01 0.34 9.02 0 8 C-0.99 8.495 -0.99 8.495 -2 9 C-1.34 6.03 -0.68 3.06 0 0 Z M1 3 C1.33 3.66 1.66 4.32 2 5 C2.33 4.34 2.66 3.68 3 3 C2.34 3 1.68 3 1 3 Z " fill="#1F1518" transform="translate(82,84)"/>
<path d="M0 0 C0.99 1.051875 0.99 1.051875 2 2.125 C5.34985941 5.49416695 9.15652564 8.22468725 13 11 C12.39542969 11.14050781 11.79085937 11.28101563 11.16796875 11.42578125 C8.28397471 12.18964994 6.35612633 13.15330639 4 15 C3.10792821 18.0957107 3.10792821 18.0957107 3 21 C2.67 21 2.34 21 2 21 C1.93941406 19.98679688 1.87882812 18.97359375 1.81640625 17.9296875 C1.73193296 16.57811486 1.64728843 15.22655291 1.5625 13.875 C1.50352539 12.87726563 1.50352539 12.87726563 1.44335938 11.859375 C1.187848 7.84981183 0.73217587 3.95005804 0 0 Z " fill="#E0C2B3" transform="translate(87,133)"/>
<path d="M0 0 C0.33 0 0.66 0 1 0 C1.07347656 0.95712891 1.07347656 0.95712891 1.1484375 1.93359375 C1.22320312 2.75988281 1.29796875 3.58617188 1.375 4.4375 C1.44460937 5.26121094 1.51421875 6.08492188 1.5859375 6.93359375 C1.72257813 7.61550781 1.85921875 8.29742187 2 9 C2.66 9.33 3.32 9.66 4 10 C3.835 10.86625 3.67 11.7325 3.5 12.625 C3.02781452 15.81225199 2.92344882 18.78485027 3 22 C1.68 22 0.36 22 -1 22 C-1 21.34 -1 20.68 -1 20 C-1.99 19.67 -2.98 19.34 -4 19 C-3.69255859 18.07380859 -3.69255859 18.07380859 -3.37890625 17.12890625 C-1.54784707 11.37289724 -0.48550136 6.02021684 0 0 Z " fill="#EDDFD0" transform="translate(156,113)"/>
<path d="M0 0 C0.33 1.32 0.66 2.64 1 4 C0.32453125 4.18175781 -0.3509375 4.36351563 -1.046875 4.55078125 C-1.93890625 4.80214844 -2.8309375 5.05351563 -3.75 5.3125 C-4.63171875 5.55613281 -5.5134375 5.79976563 -6.421875 6.05078125 C-9.06200695 7.02282983 -10.79476522 8.28854605 -13 10 C-13.66 10 -14.32 10 -15 10 C-15 7.8125 -15 7.8125 -14 5 C-9.74872787 1.24589334 -5.76251272 -0.72031409 0 0 Z " fill="#291B1A" transform="translate(110,86)"/>
<path d="M0 0 C1.21042969 0.24556641 1.21042969 0.24556641 2.4453125 0.49609375 C6.62768788 1.08897993 10.65944818 1.10894252 14.875 1.0625 C16.050625 1.05573242 16.050625 1.05573242 17.25 1.04882812 C19.16670014 1.03714093 21.08336048 1.01920908 23 1 C22.68289062 1.69480469 22.36578125 2.38960937 22.0390625 3.10546875 C20.90598948 6.26188644 20.59519989 8.97280167 20.375 12.3125 C20.30023438 13.38113281 20.22546875 14.44976562 20.1484375 15.55078125 C20.09945312 16.35902344 20.05046875 17.16726562 20 18 C19.67 18 19.34 18 19 18 C19 13.05 19 8.1 19 3 C18.01 3.33 17.02 3.66 16 4 C13.26134713 4.07051114 10.54972412 4.09357765 7.8125 4.0625 C7.06291016 4.05798828 6.31332031 4.05347656 5.54101562 4.04882812 C3.69397617 4.03706354 1.84697787 4.01912865 0 4 C0 2.68 0 1.36 0 0 Z " fill="#D9AC9D" transform="translate(109,148)"/>
<path d="M0 0 C1.32 1.32 2.64 2.64 4 4 C2.60186993 7.37881434 1.17112209 9.15017878 -2 11 C-5.25 11.6875 -5.25 11.6875 -8 12 C-7.360625 11.113125 -6.72125 10.22625 -6.0625 9.3125 C-4.19170243 6.30788572 -3.40576034 4.4489629 -3 1 C-2.01 0.67 -1.02 0.34 0 0 Z " fill="#201414" transform="translate(128,73)"/>
<path d="M0 0 C0.98226562 0.01546875 1.96453125 0.0309375 2.9765625 0.046875 C5.375 0.25 5.375 0.25 6.375 1.25 C6.61178716 3.94235776 6.79698025 6.61498156 6.9375 9.3125 C6.98068359 10.07111328 7.02386719 10.82972656 7.06835938 11.61132812 C7.17473633 13.49065438 7.27539934 15.37030244 7.375 17.25 C5.725 17.58 4.075 17.91 2.375 18.25 C2.045 17.26 1.715 16.27 1.375 15.25 C2.365 14.59 3.355 13.93 4.375 13.25 C4.73862818 11.04274927 4.73862818 11.04274927 4.5625 8.625 C4.53542969 7.80773437 4.50835937 6.99046875 4.48046875 6.1484375 C4.44566406 5.52195312 4.41085938 4.89546875 4.375 4.25 C-0.30993876 1.76112628 -3.5694214 2.39312227 -8.625 3.25 C-6.05361665 -0.07355671 -4.08592819 -0.10780813 0 0 Z " fill="#D7B3A5" transform="translate(144.625,89.75)"/>
<path d="M0 0 C0.33 0 0.66 0 1 0 C1.28875 1.134375 1.5775 2.26875 1.875 3.4375 C2.24625 4.613125 2.6175 5.78875 3 7 C3.66 7.33 4.32 7.66 5 8 C3.02 8.99 3.02 8.99 1 10 C1 10.66 1 11.32 1 12 C1.99 12 2.98 12 4 12 C4.33 13.65 4.66 15.3 5 17 C1.28400809 17.20086443 0.22791555 17.1519437 -3 15 C-2.125 8.125 -2.125 8.125 -1 7 C-0.63239269 4.67182036 -0.29758419 2.3381615 0 0 Z " fill="#241B1C" transform="translate(142,72)"/>
<path d="M0 0 C2.32240046 2.85021875 3.93906527 5.46355091 5 9 C4.625 11.3125 4.625 11.3125 4 13 C3.401875 12.34 2.80375 11.68 2.1875 11 C0.12498166 8.6626154 0.12498166 8.6626154 -3 9 C-4.0625 7.1875 -4.0625 7.1875 -5 5 C-4.67 4.01 -4.34 3.02 -4 2 C-2.68 2 -1.36 2 0 2 C0 1.34 0 0.68 0 0 Z " fill="#E4AA95" transform="translate(90,122)"/>
<path d="M0 0 C1.32 0.66 2.64 1.32 4 2 C3.67 2.33 3.34 2.66 3 3 C3.99 3.33 4.98 3.66 6 4 C6.33 5.98 6.66 7.96 7 10 C6.01 10.495 6.01 10.495 5 11 C5 10.34 5 9.68 5 9 C4.01 9.33 3.02 9.66 2 10 C1.484375 9.21625 0.96875 8.4325 0.4375 7.625 C-2.5162323 4.44405752 -4.81606548 3.88506307 -9 3 C-9 2.67 -9 2.34 -9 2 C-6.94921875 1.77213542 -4.8984375 1.54427083 -2.84765625 1.31640625 C-0.98859771 1.18113386 -0.98859771 1.18113386 0 0 Z " fill="#1B151A" transform="translate(78,101)"/>
<path d="M0 0 C0.66 0 1.32 0 2 0 C1 3 1 3 -1.14453125 4.3515625 C-2.02496094 4.77179688 -2.90539062 5.19203125 -3.8125 5.625 C-4.68519531 6.05039063 -5.55789062 6.47578125 -6.45703125 6.9140625 C-10.94330809 8.82986121 -14.67052032 9.15967304 -19.5625 9.1875 C-20.69816406 9.20167969 -21.83382812 9.21585938 -23.00390625 9.23046875 C-26 9 -26 9 -29 7 C-27.88882813 6.97421875 -26.77765625 6.9484375 -25.6328125 6.921875 C-11.72302907 6.68444631 -11.72302907 6.68444631 0 0 Z " fill="#5C3428" transform="translate(141,141)"/>
<path d="M0 0 C0.66 0 1.32 0 2 0 C3.81675478 2.69538681 5.41662787 5.49150633 7.05078125 8.30078125 C9.14001347 11.19388638 10.78603818 12.50118127 14 14 C16.67975596 14.01453953 16.67975596 14.01453953 19 13 C19.66 12.01 20.32 11.02 21 10 C21.66 11.65 22.32 13.3 23 15 C22.38125 15.12375 21.7625 15.2475 21.125 15.375 C18.80879168 15.87197356 18.80879168 15.87197356 17 18 C8.00738239 14.2065881 4.05141284 8.70303498 0 0 Z " fill="#37241C" transform="translate(63,114)"/>
<path d="M0 0 C0.61875 0.825 1.2375 1.65 1.875 2.5 C2.57625 3.325 3.2775 4.15 4 5 C4.66 5 5.32 5 6 5 C5.67 6.98 5.34 8.96 5 11 C5.66 11 6.32 11 7 11 C7.33 11.99 7.66 12.98 8 14 C5.69 14 3.38 14 1 14 C-0.20568053 9.32798795 -0.09382426 4.78503708 0 0 Z " fill="#ECDED5" transform="translate(130,23)"/>
<path d="M0 0 C0.33 1.32 0.66 2.64 1 4 C0.01 4.33 -0.98 4.66 -2 5 C-2.33 5.99 -2.66 6.98 -3 8 C-5.0625 9.1875 -5.0625 9.1875 -7 10 C-7 7.69 -7 5.38 -7 3 C-7.66 3 -8.32 3 -9 3 C-8.67 2.01 -8.34 1.02 -8 0 C-5.13822943 -1.43088528 -3.06624227 -0.59991697 0 0 Z " fill="#1A1920" transform="translate(120,73)"/>
<path d="M0 0 C0.66 0.33 1.32 0.66 2 1 C1.979375 2.175625 1.95875 3.35125 1.9375 4.5625 C1.91159015 7.49549478 2.15506617 9.76240867 2.75 12.6875 C3 16 3 16 1.25 18.875 C-1 21 -1 21 -4 22 C-3.690625 21.401875 -3.38125 20.80375 -3.0625 20.1875 C-1.89790296 17.91043228 -1.89790296 17.91043228 -1 15 C-1.66 14.67 -2.32 14.34 -3 14 C-2.34 13.01 -1.68 12.02 -1 11 C-0.54227937 8.26127045 -0.54227937 8.26127045 -0.375 5.3125 C-0.30023438 4.31863281 -0.22546875 3.32476562 -0.1484375 2.30078125 C-0.09945312 1.54152344 -0.05046875 0.78226562 0 0 Z " fill="#DABBA8" transform="translate(123,99)"/>
<path d="M0 0 C0.99 0.99 1.98 1.98 3 3 C3.99 2.01 4.98 1.02 6 0 C6 5.66666667 6 11.33333333 6 17 C3.33894874 13.85512124 2.24425004 10.89865011 1 7 C0.34 6.01 -0.32 5.02 -1 4 C-0.625 1.8125 -0.625 1.8125 0 0 Z " fill="#1A1618" transform="translate(58,97)"/>
<path d="M0 0 C0.598125 0.309375 1.19625 0.61875 1.8125 0.9375 C5.95125148 2.94775072 9.30951793 3.19208691 13.875 3.25 C15.08929688 3.27578125 16.30359375 3.3015625 17.5546875 3.328125 C21.23126172 2.97797507 22.96129727 1.98223619 26 0 C26.66 0.33 27.32 0.66 28 1 C25.42154914 4.15143994 22.92960244 5.07118488 19 6 C12.07656761 6.6829236 6.41676933 5.60390639 0 3 C0 2.01 0 1.02 0 0 Z " fill="#492C23" transform="translate(111,124)"/>
<path d="M0 0 C2.625 1.625 2.625 1.625 4.625 4.625 C1.625 4.625 1.625 4.625 -0.078125 3.13671875 C-3.32782723 0.99788412 -6.37752752 1.29936066 -10.125 1.4375 C-10.82238281 1.45103516 -11.51976563 1.46457031 -12.23828125 1.47851562 C-13.95085541 1.5137055 -15.66302941 1.56750845 -17.375 1.625 C-12.36338845 -3.86390789 -6.33161001 -2.57954482 0 0 Z " fill="#40251D" transform="translate(117.375,92.375)"/>
<path d="M0 0 C0.66 0.66 1.32 1.32 2 2 C2.66 2.33 3.32 2.66 4 3 C0.91190305 4.76462683 -0.23312136 5 -4 5 C-3.34 6.32 -2.68 7.64 -2 9 C-7.29230769 11.21538462 -7.29230769 11.21538462 -10.875 10.125 C-11.57625 9.75375 -12.2775 9.3825 -13 9 C-11.25961328 7.83974219 -9.51805053 6.68123693 -7.7734375 5.52734375 C-6.98195312 5.00269531 -6.19046875 4.47804687 -5.375 3.9375 C-4.57835937 3.41027344 -3.78171875 2.88304687 -2.9609375 2.33984375 C-1.08527994 1.1469201 -1.08527994 1.1469201 0 0 Z " fill="#F1E2DB" transform="translate(145,140)"/>
<path d="M0 0 C0.66 0 1.32 0 2 0 C2.33 2.64 2.66 5.28 3 8 C4.4540625 8.37125 4.4540625 8.37125 5.9375 8.75 C9 10 9 10 10.1875 11.75 C9.87170831 15.53950031 7.60446227 17.39553773 5 20 C2.6875 20.875 2.6875 20.875 1 21 C1.804375 20.0925 2.60875 19.185 3.4375 18.25 C5.41142671 15.89690092 6.63877467 14.13061954 7 11 C5.824375 10.62875 5.824375 10.62875 4.625 10.25 C2 9 2 9 0.6875 7.1875 C-0.09802451 4.68810383 -0.14472595 2.60506718 0 0 Z " fill="#523226" transform="translate(130,99)"/>
<path d="M0 0 C7.04277391 -0.7162143 7.04277391 -0.7162143 9.64453125 1.23046875 C11.92291705 3.88967985 13 5.45317197 13 9 C10.45828796 7.82690214 8.27116256 6.5091503 5.9375 4.9375 C3.1164266 2.89527457 3.1164266 2.89527457 0 2 C0 1.34 0 0.68 0 0 Z " fill="#E8CABF" transform="translate(68,105)"/>
<path d="M0 0 C0.66 0.33 1.32 0.66 2 1 C3.1577506 4.47325181 3.06866652 7.36067448 3 11 C3.66 11 4.32 11 5 11 C4.34 12.32 3.68 13.64 3 15 C2.01 15 1.02 15 0 15 C-0.84888195 9.62374766 -1.0024305 5.34629602 0 0 Z " fill="#6C6465" transform="translate(152,94)"/>
<path d="M0 0 C0.66 0.33 1.32 0.66 2 1 C1.67 1.66 1.34 2.32 1 3 C1.66 3 2.32 3 3 3 C3.33 3.99 3.66 4.98 4 6 C3.01 6.99 2.02 7.98 1 9 C0.67 8.67 0.34 8.34 0 8 C0 8.99 0 9.98 0 11 C-0.99 10.67 -1.98 10.34 -3 10 C-3.90837763 7.52260646 -4 5.66420516 -4 3 C-2 1.3125 -2 1.3125 0 0 Z " fill="#2D2527" transform="translate(71,39)"/>
<path d="M0 0 C0.66 0 1.32 0 2 0 C1.85957123 1.64630328 1.71250671 3.29204179 1.5625 4.9375 C1.48128906 5.85402344 1.40007812 6.77054688 1.31640625 7.71484375 C1 10 1 10 0 11 C-0.36760731 13.32817964 -0.70241581 15.6618385 -1 18 C-1.66 18 -2.32 18 -3 18 C-3 20.64 -3 23.28 -3 26 C-3.33 26 -3.66 26 -4 26 C-4.11116338 20.55299453 -4.00581962 15.36437132 -3 10 C-2.67 9.67 -2.34 9.34 -2 9 C-1.60851239 7.48834346 -1.26027543 5.96530368 -0.9375 4.4375 C-0.76089844 3.61121094 -0.58429688 2.78492188 -0.40234375 1.93359375 C-0.26957031 1.29550781 -0.13679687 0.65742188 0 0 Z " fill="#1B191F" transform="translate(166,198)"/>
<path d="M0 0 C1.2065625 0.0309375 1.2065625 0.0309375 2.4375 0.0625 C2.4375 3.0325 2.4375 6.0025 2.4375 9.0625 C0.7875 9.0625 -0.8625 9.0625 -2.5625 9.0625 C-3.92873674 6.33002652 -3.690926 4.08051098 -3.5625 1.0625 C-2.5625 0.0625 -2.5625 0.0625 0 0 Z " fill="#F3D2BF" transform="translate(136.5625,93.9375)"/>
<path d="M0 0 C0.66 0 1.32 0 2 0 C2.3125 2.1875 2.3125 2.1875 2 5 C-0.375 7.6875 -0.375 7.6875 -3 10 C-3.66 10.66 -4.32 11.32 -5 12 C-7.625 12.125 -7.625 12.125 -10 12 C-8 9 -8 9 -5.875 8.3125 C-5.25625 8.209375 -4.6375 8.10625 -4 8 C-3.814375 7.0409375 -3.814375 7.0409375 -3.625 6.0625 C-3.41875 5.381875 -3.2125 4.70125 -3 4 C-2.34 3.67 -1.68 3.34 -1 3 C-0.67 2.01 -0.34 1.02 0 0 Z " fill="#2D1E1E" transform="translate(121,73)"/>
<path d="M0 0 C2.10823096 3.42587531 2.08614656 6.0372584 2 10 C2.33 10.66 2.66 11.32 3 12 C2.34 12 1.68 12 1 12 C0.67 12.66 0.34 13.32 0 14 C-0.2475 13.38125 -0.495 12.7625 -0.75 12.125 C-2.20628639 9.64931313 -3.37812506 9.04874998 -6 8 C-5.38125 7.4225 -4.7625 6.845 -4.125 6.25 C-2.18652947 4.19750179 -1.09985751 2.56633418 0 0 Z " fill="#EADFD8" transform="translate(162,42)"/>
<path d="M0 0 C0.99 0.66 1.98 1.32 3 2 C3.29296875 4.1640625 3.29296875 4.1640625 3.1875 6.625 C3.16042969 7.44226563 3.13335937 8.25953125 3.10546875 9.1015625 C3.07066406 9.72804688 3.03585938 10.35453125 3 11 C1.68 11.33 0.36 11.66 -1 12 C-2.36741555 9.74778616 -3.04066478 8.47442242 -2.8125 5.8125 C-2.4103125 4.9153125 -2.4103125 4.9153125 -2 4 C-1.01 3.67 -0.02 3.34 1 3 C0.67 2.01 0.34 1.02 0 0 Z " fill="#FAD1BA" transform="translate(147,92)"/>
<path d="M0 0 C3.56359052 0.58862879 5.37265244 1.94265089 8 4.375 C10.57750752 6.74107136 13.1695991 8.94037792 16 11 C15.34 12.32 14.68 13.64 14 15 C12 13 12 13 11 10 C10.01 10 9.02 10 8 10 C6 7.6875 6 7.6875 4 5 C3.443125 4.443125 2.88625 3.88625 2.3125 3.3125 C1 2 1 2 0 0 Z " fill="#1F1715" transform="translate(81,169)"/>
<path d="M0 0 C0.99 0.33 1.98 0.66 3 1 C4 7.625 4 7.625 4 11 C3.01 11.33 2.02 11.66 1 12 C-0.5625 10.3125 -0.5625 10.3125 -2 8 C-1.71814575 5.11099395 -0.91884332 2.75652997 0 0 Z " fill="#F0CFBE" transform="translate(70,113)"/>
<path d="M0 0 C0.99 1.32 1.98 2.64 3 4 C2.01 4.495 2.01 4.495 1 5 C0.34 4.67 -0.32 4.34 -1 4 C-0.67 2.68 -0.34 1.36 0 0 Z M-2 4 C-0.0625 4.8125 -0.0625 4.8125 2 6 C2.33 6.99 2.66 7.98 3 9 C2.34 9 1.68 9 1 9 C1 11.31 1 13.62 1 16 C0.34 15.67 -0.32 15.34 -1 15 C-1 13.35 -1 11.7 -1 10 C-2.32 9.67 -3.64 9.34 -5 9 C-3.125 5.125 -3.125 5.125 -2 4 Z " fill="#DED2CB" transform="translate(160,83)"/>
<path d="M0 0 C0.66 0.33 1.32 0.66 2 1 C1.67 2.65 1.34 4.3 1 6 C1.66 6 2.32 6 3 6 C3 7.32 3 8.64 3 10 C1.35 10 -0.3 10 -2 10 C-2 8.68 -2 7.36 -2 6 C-2.99 6 -3.98 6 -5 6 C-5 5.34 -5 4.68 -5 4 C-3.37373596 2.61767557 -1.7074998 1.28062485 0 0 Z " fill="#CDB5B4" transform="translate(148,78)"/>
<path d="M0 0 C0.33 0 0.66 0 1 0 C1.66 1.98 2.32 3.96 3 6 C4.65 6 6.3 6 8 6 C8.33 7.65 8.66 9.3 9 11 C6.36 11 3.72 11 1 11 C-0.20272819 8.59454362 -0.10071472 7.05003047 -0.0625 4.375 C-0.05347656 3.55773437 -0.04445312 2.74046875 -0.03515625 1.8984375 C-0.02355469 1.27195312 -0.01195312 0.64546875 0 0 Z " fill="#E2C5B5" transform="translate(132,96)"/>
<path d="M0 0 C0.66 0 1.32 0 2 0 C2 1.32 2 2.64 2 4 C3.65 3.34 5.3 2.68 7 2 C5.9375 4.5 5.9375 4.5 4 7 C-0.39092112 7.54886514 -2.28500878 7.47666082 -6 5 C-5.195625 4.731875 -4.39125 4.46375 -3.5625 4.1875 C-2.716875 3.795625 -1.87125 3.40375 -1 3 C-0.67 2.01 -0.34 1.02 0 0 Z " fill="#EEC8B4" transform="translate(93,92)"/>
<path d="M0 0 C0.33 0 0.66 0 1 0 C1.33 3.96 1.66 7.92 2 12 C4.475 12.99 4.475 12.99 7 14 C6.34 14.66 5.68 15.32 5 16 C3.68 15.34 2.36 14.68 1 14 C1 14.99 1 15.98 1 17 C0.34 17 -0.32 17 -1 17 C-1.02709444 14.91673869 -1.04643873 12.83337559 -1.0625 10.75 C-1.07410156 9.58984375 -1.08570313 8.4296875 -1.09765625 7.234375 C-1.01782092 4.59022872 -0.78643778 2.50173909 0 0 Z " fill="#4D3329" transform="translate(130,150)"/>
<path d="M0 0 C0.10957031 0.60328125 0.21914062 1.2065625 0.33203125 1.828125 C1.50797128 7.93684987 1.50797128 7.93684987 5 13 C4.01 13 3.02 13 2 13 C-0.42603384 10.01944414 -1.91332443 7.99676908 -2.25 4.125 C-2.1675 3.42375 -2.085 2.7225 -2 2 C-4.97 2 -7.94 2 -11 2 C-11 1.67 -11 1.34 -11 1 C-9.35422741 0.83273455 -7.70838013 0.66620388 -6.0625 0.5 C-4.68771484 0.36078125 -4.68771484 0.36078125 -3.28515625 0.21875 C-1 0 -1 0 0 0 Z " fill="#523C31" transform="translate(98,103)"/>
<path d="M0 0 C1.953125 0.6796875 1.953125 0.6796875 4 2 C4.609375 4.3828125 4.609375 4.3828125 4.75 7.125 C4.80671875 8.03507812 4.8634375 8.94515625 4.921875 9.8828125 C4.94765625 10.58148438 4.9734375 11.28015625 5 12 C2 11 2 11 0.8125 8.8125 C-0.07334979 5.74609689 -0.14770318 3.17561845 0 0 Z " fill="#E4C2B1" transform="translate(117,96)"/>
<path d="M0 0 C0.33 0.66 0.66 1.32 1 2 C1.99 2 2.98 2 4 2 C4 4.31 4 6.62 4 9 C3.01 9.33 2.02 9.66 1 10 C0.67 10.66 0.34 11.32 0 12 C-1.83807713 8.21572356 -2.2031953 6.04711146 -1 2 C-0.67 1.34 -0.34 0.68 0 0 Z " fill="#EFE2D5" transform="translate(163,78)"/>
<path d="M0 0 C2 0.3125 2 0.3125 4 1 C4.33 1.66 4.66 2.32 5 3 C7.52733235 3.65555119 7.52733235 3.65555119 10 4 C10.33 5.65 10.66 7.3 11 9 C7.27566618 7.7874262 3.62197194 6.49140021 0 5 C0.66 4.67 1.32 4.34 2 4 C2 3.34 2 2.68 2 2 C1.01 1.67 0.02 1.34 -1 1 C-0.67 0.67 -0.34 0.34 0 0 Z " fill="#E9DFD1" transform="translate(137,160)"/>
<path d="M0 0 C0.9991932 3.10860106 0.83036989 4.88611292 0 8 C0.33 8.66 0.66 9.32 1 10 C0.01 11.485 0.01 11.485 -1 13 C-1.66 11.68 -2.32 10.36 -3 9 C-4.65 9.33 -6.3 9.66 -8 10 C-8 9.34 -8 8.68 -8 8 C-6.50390625 6.5625 -6.50390625 6.5625 -4.5625 5 C-1.84811762 2.85474956 -1.84811762 2.85474956 0 0 Z " fill="#D1AB9D" transform="translate(134,75)"/>
<path d="M0 0 C1.32 0.66 2.64 1.32 4 2 C4 3.98 4 5.96 4 8 C3.01 8.33 2.02 8.66 1 9 C0.34 8.67 -0.32 8.34 -1 8 C-1.04241723 5.66705225 -1.04092937 3.33297433 -1 1 C-0.67 0.67 -0.34 0.34 0 0 Z " fill="#362925" transform="translate(111,100)"/>
<path d="M0 0 C1.65 0.99 3.3 1.98 5 3 C3.7508258 6.45925163 2.32472205 9.14693203 0 12 C-1.31157516 9.37684968 -0.89649988 7.76966564 -0.5625 4.875 C-0.46066406 3.96492188 -0.35882813 3.05484375 -0.25390625 2.1171875 C-0.17011719 1.41851562 -0.08632813 0.71984375 0 0 Z " fill="#EADDCF" transform="translate(51,56)"/>
<path d="M0 0 C1.73543126 2.60314689 2.61121812 3.98694043 3 7 C2.34 7.66 1.68 8.32 1 9 C-0.9375 8.625 -0.9375 8.625 -3 8 C-3.99 8 -4.98 8 -6 8 C-5.34 6.68 -4.68 5.36 -4 4 C-3.34 4 -2.68 4 -2 4 C-1.34 2.68 -0.68 1.36 0 0 Z " fill="#F6C9AC" transform="translate(108,103)"/>
<path d="M0 0 C1.2065625 0.0309375 1.2065625 0.0309375 2.4375 0.0625 C2.4375 2.3725 2.4375 4.6825 2.4375 7.0625 C1.4475 7.5575 1.4475 7.5575 0.4375 8.0625 C0.1075 7.0725 -0.2225 6.0825 -0.5625 5.0625 C-1.5525 6.0525 -2.5425 7.0425 -3.5625 8.0625 C-3.60491723 5.72955225 -3.60342937 3.39547433 -3.5625 1.0625 C-2.5625 0.0625 -2.5625 0.0625 0 0 Z " fill="#EFD0C1" transform="translate(127.5625,98.9375)"/>
<path d="M0 0 C2.0625 0.4375 2.0625 0.4375 4 1 C4.125 6.75 4.125 6.75 3 9 C2.01 8.67 1.02 8.34 0 8 C-0.38063221 5.6739143 -0.71269945 3.33944736 -1 1 C-0.67 0.67 -0.34 0.34 0 0 Z " fill="#291B15" transform="translate(140,97)"/>
<path d="M0 0 C2.97 0.495 2.97 0.495 6 1 C4.50902342 4.7952131 2.24299151 6.61042731 -1 9 C-1.625 6.1875 -1.625 6.1875 -2 3 C-1.34 2.01 -0.68 1.02 0 0 Z " fill="#312928" transform="translate(56,59)"/>
<path d="M0 0 C1.65 0 3.3 0 5 0 C4.8125 2.3125 4.8125 2.3125 4 5 C1.4375 6.8125 1.4375 6.8125 -1 8 C-1 6.68 -1 5.36 -1 4 C-1.99 4.495 -1.99 4.495 -3 5 C-2.67 4.01 -2.34 3.02 -2 2 C-1.34 2 -0.68 2 0 2 C0 1.34 0 0.68 0 0 Z " fill="#EEE1D5" transform="translate(52,176)"/>
<path d="M0 0 C1.2065625 0.0309375 1.2065625 0.0309375 2.4375 0.0625 C3.48199911 3.19599732 3.37173645 4.05218256 2.4375 7.0625 C0 6.3125 0 6.3125 -2.5625 5.0625 C-3.4375 3 -3.4375 3 -3.5625 1.0625 C-2.5625 0.0625 -2.5625 0.0625 0 0 Z " fill="#241D1D" transform="translate(84.5625,128.9375)"/>
<path d="M0 0 C0.33 0.66 0.66 1.32 1 2 C0 4 0 4 -1.734375 4.65234375 C-4.36519821 5.05603904 -6.60931691 4.87521247 -9.25 4.5625 C-10.14203125 4.46066406 -11.0340625 4.35882813 -11.953125 4.25390625 C-12.62859375 4.17011719 -13.3040625 4.08632812 -14 4 C-14.33 3.01 -14.66 2.02 -15 1 C-14.08476563 1.01160156 -13.16953125 1.02320312 -12.2265625 1.03515625 C-11.03804688 1.04417969 -9.84953125 1.05320312 -8.625 1.0625 C-6.84996094 1.07990234 -6.84996094 1.07990234 -5.0390625 1.09765625 C-2.08078479 1.21466593 -2.08078479 1.21466593 0 0 Z " fill="#C39D8E" transform="translate(117,116)"/>
<path d="M0 0 C0.66 0 1.32 0 2 0 C2 0.66 2 1.32 2 2 C1.01 1.67 0.02 1.34 -1 1 C-0.67 0.67 -0.34 0.34 0 0 Z M-4 0 C-0.66666667 1.66666667 2.66666667 3.33333333 6 5 C5.34 5 4.68 5 4 5 C4 5.66 4 6.32 4 7 C0.2089881 5.55049545 -3.3874638 3.84827434 -7 2 C-6.01 1.34 -5.02 0.68 -4 0 Z " fill="#EBDED3" transform="translate(161,171)"/>
<path d="M0 0 C2 1 2 1 2.703125 2.92578125 C2.88359375 3.71339844 3.0640625 4.50101562 3.25 5.3125 C3.44078125 6.09238281 3.6315625 6.87226562 3.828125 7.67578125 C4.02997047 10.40528247 3.41196151 11.69765978 2 14 C1.34 12.35 0.68 10.7 0 9 C-0.66 9 -1.32 9 -2 9 C-1.67 8.01 -1.34 7.02 -1 6 C-0.34 6 0.32 6 1 6 C0.67 4.02 0.34 2.04 0 0 Z " fill="#E1D5C7" transform="translate(59,104)"/>
<path d="M0 0 C0.66 0 1.32 0 2 0 C2.66 1.65 3.32 3.3 4 5 C2.68 6.65 1.36 8.3 0 10 C-1 9 -1 9 -1.1328125 7.1875 C-1.13023438 6.465625 -1.12765625 5.74375 -1.125 5 C-1.12757812 4.278125 -1.13015625 3.55625 -1.1328125 2.8125 C-1 1 -1 1 0 0 Z " fill="#F5D5BF" transform="translate(100,97)"/>
<path d="M0 0 C0.9796875 0.00515625 1.959375 0.0103125 2.96875 0.015625 C3.9484375 0.01046875 4.928125 0.0053125 5.9375 0 C8.46875 0.265625 8.46875 0.265625 10.46875 2.265625 C7.16875 2.925625 3.86875 3.585625 0.46875 4.265625 C0.46875 3.605625 0.46875 2.945625 0.46875 2.265625 C-1.18125 2.265625 -2.83125 2.265625 -4.53125 2.265625 C-2.53125 0.265625 -2.53125 0.265625 0 0 Z " fill="#E1B7A9" transform="translate(106.53125,92.734375)"/>
<path d="M0 0 C0.66 0 1.32 0 2 0 C1.75881648 3.25597758 0.47775788 4.7276304 -1.875 6.8125 C-2.90625 7.534375 -3.9375 8.25625 -5 9 C-5.99 8.67 -6.98 8.34 -8 8 C-7.67 7.01 -7.34 6.02 -7 5 C-5.33927151 4.31867549 -3.672233 3.65257873 -2 3 C-1.34 2.01 -0.68 1.02 0 0 Z " fill="#291819" transform="translate(108,77)"/>
<path d="M0 0 C1.65 0.33 3.3 0.66 5 1 C5.33 2.65 5.66 4.3 6 6 C0.25 5.125 0.25 5.125 -2 4 C-2 3.34 -2 2.68 -2 2 C-1.34 2 -0.68 2 0 2 C0 1.34 0 0.68 0 0 Z " fill="#E5DCCE" transform="translate(151,43)"/>
<path d="M0 0 C0.66 1.32 1.32 2.64 2 4 C1.01 5.485 1.01 5.485 0 7 C-1.32 6.67 -2.64 6.34 -4 6 C-4.33 4.68 -4.66 3.36 -5 2 C-3.35 1.34 -1.7 0.68 0 0 Z " fill="#EEC9AB" transform="translate(142,119)"/>
<path d="M0 0 C-0.75 1.9375 -0.75 1.9375 -2 4 C-4.125 4.75 -4.125 4.75 -6 5 C-6.99 3.68 -7.98 2.36 -9 1 C-5.57367167 -0.61798838 -3.61944899 -1.34053666 0 0 Z " fill="#DCB19D" transform="translate(109,111)"/>
<path d="M0 0 C1.32 0.66 2.64 1.32 4 2 C3.34 2 2.68 2 2 2 C1.773125 2.639375 1.54625 3.27875 1.3125 3.9375 C0 6 0 6 -2.5 6.8125 C-5 7 -5 7 -7 6 C-7 5.34 -7 4.68 -7 4 C-4 3 -4 3 -1 4 C-0.67 2.68 -0.34 1.36 0 0 Z " fill="#DCD3C9" transform="translate(79,36)"/>
<path d="M0 0 C1.75570312 0.01353516 1.75570312 0.01353516 3.546875 0.02734375 C4.43890625 0.03894531 5.3309375 0.05054687 6.25 0.0625 C5.23046875 1.55078125 5.23046875 1.55078125 3.25 3.0625 C0.60003674 3.2797101 -1.80076558 3.34601554 -4.4375 3.25 C-5.13939453 3.23646484 -5.84128906 3.22292969 -6.56445312 3.20898438 C-8.29329829 3.17370182 -10.02174765 3.11989583 -11.75 3.0625 C-10.75 1.0625 -10.75 1.0625 -9.109375 0.44140625 C-6.04728012 -0.05035402 -3.10003047 -0.0310003 0 0 Z " fill="#1A171D" transform="translate(116.75,31.9375)"/>
<path d="M0 0 C4.3890815 0.51035831 7.33708062 1.52214277 11 4 C10.01 4.495 10.01 4.495 9 5 C6.875 4.0625 6.875 4.0625 5 3 C4.566875 3.928125 4.566875 3.928125 4.125 4.875 C3 7 3 7 1 9 C1.33 6.36 1.66 3.72 2 1 C1.34 0.67 0.68 0.34 0 0 Z " fill="#1B1213" transform="translate(136,165)"/>
<path d="M0 0 C2.97 0.99 5.94 1.98 9 3 C9 3.66 9 4.32 9 5 C7.68 5 6.36 5 5 5 C5 5.66 5 6.32 5 7 C3.68 7.33 2.36 7.66 1 8 C1 6.68 1 5.36 1 4 C0.67 2.68 0.34 1.36 0 0 Z " fill="#F8D1BF" transform="translate(128,108)"/>
<path d="M0 0 C0 1.98 0 3.96 0 6 C-1.65 6.66 -3.3 7.32 -5 8 C-5 6.02 -5 4.04 -5 2 C-1.125 0 -1.125 0 0 0 Z " fill="#7C6E6B" transform="translate(139,83)"/>
<path d="M0 0 C0 1.65 0 3.3 0 5 C0.99 5 1.98 5 3 5 C1.84826645 7.46800047 0.95216435 9.04783565 -1 11 C-1.99 9.68 -2.98 8.36 -4 7 C-3.01 7 -2.02 7 -1 7 C-1.26676204 5.01508358 -1.26676204 5.01508358 -2 3 C-2.99 2.67 -3.98 2.34 -5 2 C-1.125 0 -1.125 0 0 0 Z " fill="#352424" transform="translate(152,82)"/>
<path d="M0 0 C0.66 0.33 1.32 0.66 2 1 C2.5625 3.3125 2.5625 3.3125 3 6 C3.32483418 7.33542939 3.6550855 8.66961551 4 10 C3.01 9.67 2.02 9.34 1 9 C0.34 9.66 -0.32 10.32 -1 11 C-1.02688151 9.35425434 -1.04634123 7.70838587 -1.0625 6.0625 C-1.07410156 5.14597656 -1.08570313 4.22945313 -1.09765625 3.28515625 C-1 1 -1 1 0 0 Z " fill="#362C29" transform="translate(142,68)"/>
<path d="M0 0 C0.66 0.33 1.32 0.66 2 1 C1.75 3.375 1.75 3.375 1 6 C-0.9375 7.0625 -0.9375 7.0625 -3 8 C-4.1500831 9.96672915 -4.1500831 9.96672915 -5 12 C-5.66 12.66 -6.32 13.32 -7 14 C-7.125 9.25 -7.125 9.25 -6 7 C-5.175 6.731875 -4.35 6.46375 -3.5 6.1875 C-2.675 5.795625 -1.85 5.40375 -1 5 C-0.10613836 2.45224694 -0.10613836 2.45224694 0 0 Z " fill="#35312E" transform="translate(159,42)"/>
<path d="M0 0 C0.33 0.99 0.66 1.98 1 3 C-1.64 3 -4.28 3 -7 3 C-7 2.67 -7 2.34 -7 2 C-8.65 1.67 -10.3 1.34 -12 1 C-12 0.67 -12 0.34 -12 0 C-7.66726186 -0.92844389 -4.33273814 -0.92844389 0 0 Z " fill="#1F1617" transform="translate(126,187)"/>
<path d="M0 0 C0.66 0.33 1.32 0.66 2 1 C-0.25283313 4.31996462 -2.80800833 6.58443874 -6 9 C-6 8.34 -6 7.68 -6 7 C-6.66 6.67 -7.32 6.34 -8 6 C-5.36 4.02 -2.72 2.04 0 0 Z " fill="#241C1C" transform="translate(59,178)"/>
<path d="M0 0 C2.31 0.66 4.62 1.32 7 2 C7.33 3.32 7.66 4.64 8 6 C4.22454612 4.90931332 1.52956528 4.0916909 -1 1 C-0.67 0.67 -0.34 0.34 0 0 Z " fill="#EACEBE" transform="translate(100,179)"/>
<path d="M0 0 C1.0326802 2.78823655 1.04509293 3.8677274 0.0625 6.75 C-0.288125 7.4925 -0.63875 8.235 -1 9 C-2.32 8.01 -3.64 7.02 -5 6 C-3.86695008 2.60085025 -2.87481525 1.94745549 0 0 Z " fill="#DFC9B9" transform="translate(87,162)"/>
<path d="M0 0 C2.475 0.495 2.475 0.495 5 1 C4.67 1.99 4.34 2.98 4 4 C5.32 4.66 6.64 5.32 8 6 C5.125 6.125 5.125 6.125 2 6 C1.34 5.34 0.68 4.68 0 4 C0 2.68 0 1.36 0 0 Z M0 6 C2 7 2 7 2 7 Z " fill="#FCD0BE" transform="translate(96,144)"/>
<path d="M0 0 C0.61875 0.825 1.2375 1.65 1.875 2.5 C2.57625 3.325 3.2775 4.15 4 5 C4.66 5 5.32 5 6 5 C4.48601545 8.78496138 3.9855604 9.0072198 0 11 C0 7.37 0 3.74 0 0 Z " fill="#9E9084" transform="translate(130,23)"/>
<path d="M0 0 C1.69207001 0.9563874 3.36816893 1.94410931 5 3 C0.80441263 4.39852912 -1.04566851 2.77263136 -5 1 C-7.77888613 0.30859478 -7.77888613 0.30859478 -10 0 C-6.20529687 -2.62710217 -4.09106177 -1.75331219 0 0 Z " fill="#1C1715" transform="translate(154,172)"/>
<path d="M0 0 C0 1.32 0 2.64 0 4 C-6.4 5.35384615 -6.4 5.35384615 -9.4375 3.5625 C-9.953125 3.046875 -10.46875 2.53125 -11 2 C-9.5422647 1.664061 -8.08378894 1.33133376 -6.625 1 C-5.40683594 0.7215625 -5.40683594 0.7215625 -4.1640625 0.4375 C-2 0 -2 0 0 0 Z " fill="#E5C4B2" transform="translate(152,113)"/>
<path d="M0 0 C1.32 0.33 2.64 0.66 4 1 C-0.75 5.875 -0.75 5.875 -3 7 C-3.33 5.68 -3.66 4.36 -4 3 C-2.68 2.67 -1.36 2.34 0 2 C0 1.34 0 0.68 0 0 Z " fill="#D5A998" transform="translate(133,113)"/>
<path d="M0 0 C0.33 0 0.66 0 1 0 C1.33 3.96 1.66 7.92 2 12 C1.01 12.495 1.01 12.495 0 13 C0 12.34 0 11.68 0 11 C-1.65 11 -3.3 11 -5 11 C-4.67 9.68 -4.34 8.36 -4 7 C-4 7.99 -4 8.98 -4 10 C-3.01 10 -2.02 10 -1 10 C-0.67 6.7 -0.34 3.4 0 0 Z " fill="#B69083" transform="translate(86,105)"/>
<path d="M0 0 C0.66 0 1.32 0 2 0 C3.23662862 1.74411301 4.39102135 3.54706485 5.5 5.375 C7.94216507 9.42943147 7.94216507 9.42943147 11 13 C10.01 13 9.02 13 8 13 C4.32844821 9.21001106 2.20563079 4.72802771 0 0 Z " fill="#4C3833" transform="translate(63,114)"/>
<path d="M0 0 C0.99 0.33 1.98 0.66 3 1 C3.33 2.98 3.66 4.96 4 7 C3.01 7.495 3.01 7.495 2 8 C2 7.34 2 6.68 2 6 C1.01 6.33 0.02 6.66 -1 7 C-1.625 4.625 -1.625 4.625 -2 2 C-1.34 1.34 -0.68 0.68 0 0 Z " fill="#24232B" transform="translate(81,104)"/>
<path d="M0 0 C0.6875 1.75 0.6875 1.75 1 4 C-0.4375 6.25 -0.4375 6.25 -2 8 C-2.99 7.67 -3.98 7.34 -5 7 C-4.67 5.68 -4.34 4.36 -4 3 C-3.34 3 -2.68 3 -2 3 C-2 2.34 -2 1.68 -2 1 C-1.34 0.67 -0.68 0.34 0 0 Z " fill="#F6CAB2" transform="translate(138,76)"/>
<path d="M0 0 C2 0 2 0 3.625 1.375 C5 3 5 3 5 5 C2.36 5.33 -0.28 5.66 -3 6 C-2.42655063 3.13275314 -2.1385485 2.1385485 0 0 Z " fill="#1B1B1B" transform="translate(49,186)"/>
<path d="M0 0 C-5.17578125 3.22265625 -5.17578125 3.22265625 -7 4 C-7.99 3.67 -8.98 3.34 -10 3 C-9.67 2.01 -9.34 1.02 -9 0 C-3.375 -1.125 -3.375 -1.125 0 0 Z " fill="#E7CAB8" transform="translate(140,143)"/>
<path d="M0 0 C3.37503669 1.1858237 5.64722731 2.27573689 8 5 C7.34 5 6.68 5 6 5 C5.67 5.99 5.34 6.98 5 8 C4.67 7.01 4.34 6.02 4 5 C3.01 4.67 2.02 4.34 1 4 C0.3125 1.9375 0.3125 1.9375 0 0 Z " fill="#F0E1D7" transform="translate(76,130)"/>
<path d="M0 0 C2.31 0.66 4.62 1.32 7 2 C7 2.99 7 3.98 7 5 C6.34 5.66 5.68 6.32 5 7 C5 6.34 5 5.68 5 5 C4.360625 4.731875 3.72125 4.46375 3.0625 4.1875 C1 3 1 3 0 0 Z " fill="#E3AF96" transform="translate(68,109)"/>
<path d="M0 0 C0.33 0.66 0.66 1.32 1 2 C2.98 2 4.96 2 7 2 C7 2.99 7 3.98 7 5 C5.68 4.67 4.36 4.34 3 4 C2.67 4.99 2.34 5.98 2 7 C1.01 6.34 0.02 5.68 -1 5 C-0.67 3.35 -0.34 1.7 0 0 Z " fill="#EEDECB" transform="translate(49,95)"/>
<path d="M0 0 C2.475 0.99 2.475 0.99 5 2 C4.67 3.32 4.34 4.64 4 6 C3.34 5.01 2.68 4.02 2 3 C2 4.65 2 6.3 2 8 C0.4375 6.8125 0.4375 6.8125 -1 5 C-0.6875 2.3125 -0.6875 2.3125 0 0 Z " fill="#F1E3CE" transform="translate(130,17)"/>
<path d="M0 0 C0.33 0.66 0.66 1.32 1 2 C4.465 1.505 4.465 1.505 8 1 C7.34 2.32 6.68 3.64 6 5 C1.545 4.01 1.545 4.01 -3 3 C-2.01 2.01 -1.02 1.02 0 0 Z " fill="#2C282E" transform="translate(73,168)"/>
<path d="M0 0 C0.66 0.66 1.32 1.32 2 2 C2.66 2.33 3.32 2.66 4 3 C0.91190305 4.76462683 -0.23312136 5 -4 5 C-4 5.66 -4 6.32 -4 7 C-5.32 6.67 -6.64 6.34 -8 6 C-5.36 4.02 -2.72 2.04 0 0 Z " fill="#E8DBD3" transform="translate(145,140)"/>
<path d="M0 0 C1.65 1.65 3.3 3.3 5 5 C4.01 5.33 3.02 5.66 2 6 C-0.6875 4.5625 -0.6875 4.5625 -3 3 C-2.01 2.01 -1.02 1.02 0 0 Z " fill="#DEB196" transform="translate(102,139)"/>
<path d="M0 0 C0.33 0.66 0.66 1.32 1 2 C1.66 2.33 2.32 2.66 3 3 C3 4.32 3 5.64 3 7 C3.66 7 4.32 7 5 7 C4.67 7.66 4.34 8.32 4 9 C2.68 8.67 1.36 8.34 0 8 C-0.38063221 5.6739143 -0.71269945 3.33944736 -1 1 C-0.67 0.67 -0.34 0.34 0 0 Z " fill="#F8D2C2" transform="translate(116,100)"/>
<path d="M0 0 C0 0.99 0 1.98 0 3 C-3.63 3.33 -7.26 3.66 -11 4 C-7.23121442 0.23121442 -5.1234648 -0.13847202 0 0 Z " fill="#715F5D" transform="translate(111,90)"/>
<path d="M0 0 C1.32 0 2.64 0 4 0 C3.67 2.97 3.34 5.94 3 9 C2.34 9 1.68 9 1 9 C0.67 6.03 0.34 3.06 0 0 Z " fill="#E3D7CF" transform="translate(183,216)"/>
<path d="M0 0 C0.99 0.66 1.98 1.32 3 2 C1.38405168 4.04119788 -0.2856382 6.04072937 -2 8 C-2.66 8 -3.32 8 -4 8 C-3.67 6.68 -3.34 5.36 -3 4 C-2.34 4 -1.68 4 -1 4 C-0.67 2.68 -0.34 1.36 0 0 Z " fill="#E4CAB8" transform="translate(132,175)"/>
<path d="M0 0 C1.32 0.33 2.64 0.66 4 1 C3.67 3.31 3.34 5.62 3 8 C2.34 7.67 1.68 7.34 1 7 C0.59270772 4.67843403 0.25561323 2.3431213 0 0 Z " fill="#F7EDE2" transform="translate(82,135)"/>
<path d="M0 0 C2.64 0.99 5.28 1.98 8 3 C8 3.99 8 4.98 8 6 C4.22454612 4.90931332 1.52956528 4.0916909 -1 1 C-0.67 0.67 -0.34 0.34 0 0 Z " fill="#E0C3B1" transform="translate(112,122)"/>
<path d="M0 0 C6.75 0.875 6.75 0.875 9 2 C9 2.66 9 3.32 9 4 C7.8553125 3.9690625 7.8553125 3.9690625 6.6875 3.9375 C3.89814214 3.87057159 3.89814214 3.87057159 1 5 C1 4.34 1 3.68 1 3 C0.34 2.67 -0.32 2.34 -1 2 C-0.67 1.34 -0.34 0.68 0 0 Z " fill="#EFC0A5" transform="translate(74,119)"/>
<path d="M0 0 C2 3 2 3 1.625 5.6875 C1.41875 6.450625 1.2125 7.21375 1 8 C-0.32 8 -1.64 8 -3 8 C-2.67 6.68 -2.34 5.36 -2 4 C-1.34 4 -0.68 4 0 4 C0 2.68 0 1.36 0 0 Z " fill="#EFE4DD" transform="translate(86,32)"/>
<path d="M0 0 C0.99 0 1.98 0 3 0 C4.25 6.5 4.25 6.5 2 11 C1.34 7.37 0.68 3.74 0 0 Z " fill="#E3DAD2" transform="translate(179,199)"/>
<path d="M0 0 C1.9375 0.8125 1.9375 0.8125 4 2 C4.33 2.99 4.66 3.98 5 5 C3.02 5.99 3.02 5.99 1 7 C0.01 6.01 -0.98 5.02 -2 4 C-1.01 3.34 -0.02 2.68 1 2 C0.67 1.34 0.34 0.68 0 0 Z " fill="#E6C3AA" transform="translate(91,170)"/>
<path d="M0 0 C-1.10789408 3.32368224 -1.48436217 3.61563093 -4.375 5.25 C-5.28378906 5.78367188 -5.28378906 5.78367188 -6.2109375 6.328125 C-8 7 -8 7 -11 6 C-9.54550599 4.9944239 -8.08627557 3.99569565 -6.625 3 C-5.40683594 2.1646875 -5.40683594 2.1646875 -4.1640625 1.3125 C-2 0 -2 0 0 0 Z " fill="#402B27" transform="translate(143,141)"/>
<path d="M0 0 C1.65 0 3.3 0 5 0 C3.38405168 2.04119788 1.7143618 4.04072937 0 6 C-0.66 6 -1.32 6 -2 6 C-1.34 4.02 -0.68 2.04 0 0 Z " fill="#E0C5B6" transform="translate(143,135)"/>
<path d="M0 0 C1.65 0.33 3.3 0.66 5 1 C4.01 1.495 4.01 1.495 3 2 C3 3.32 3 4.64 3 6 C1.68 6.33 0.36 6.66 -1 7 C-2 4 -2 4 -1.0625 1.8125 C-0.5365625 0.9153125 -0.5365625 0.9153125 0 0 Z " fill="#EEC5AD" transform="translate(115,128)"/>
<path d="M0 0 C1.98 0.66 3.96 1.32 6 2 C6 2.99 6 3.98 6 5 C6.99 5.33 7.98 5.66 9 6 C8.01 6.495 8.01 6.495 7 7 C4.375 6.0625 4.375 6.0625 2 5 C2 4.34 2 3.68 2 3 C1.34 2.67 0.68 2.34 0 2 C0 1.34 0 0.68 0 0 Z " fill="#E5C1A9" transform="translate(105,122)"/>
<path d="M0 0 C0.33 0 0.66 0 1 0 C1.04898438 0.63808594 1.09796875 1.27617188 1.1484375 1.93359375 C1.22320312 2.75988281 1.29796875 3.58617188 1.375 4.4375 C1.44460937 5.26121094 1.51421875 6.08492188 1.5859375 6.93359375 C1.72257813 7.61550781 1.85921875 8.29742187 2 9 C2.66 9.33 3.32 9.66 4 10 C3 12 3 12 1 13 C0.34 12.67 -0.32 12.34 -1 12 C-0.67 8.04 -0.34 4.08 0 0 Z " fill="#E6D6CA" transform="translate(156,113)"/>
<path d="M0 0 C2.5 2.3125 2.5 2.3125 5 5 C5 5.99 5 6.98 5 8 C3.35 7.67 1.7 7.34 0 7 C0 4.69 0 2.38 0 0 Z " fill="#E8C7B9" transform="translate(97,112)"/>
<path d="M0 0 C1.65 0 3.3 0 5 0 C4.25 1.9375 4.25 1.9375 3 4 C0.875 4.75 0.875 4.75 -1 5 C-0.67 3.35 -0.34 1.7 0 0 Z " fill="#DCAC9C" transform="translate(76,114)"/>
<path d="M0 0 C6.75 0.875 6.75 0.875 9 2 C8.67 2.99 8.34 3.98 8 5 C6.68 5 5.36 5 4 5 C3.34 4.01 2.68 3.02 2 2 C1.34 1.34 0.68 0.68 0 0 Z " fill="#ECC4B0" transform="translate(135,93)"/>
<path d="M0 0 C0.66 0.99 1.32 1.98 2 3 C-0.30368736 4.06652192 -2.64018187 5.06421005 -5 6 C-5.66 5.67 -6.32 5.34 -7 5 C-5.68 3.68 -4.36 2.36 -3 1 C-2.01 1.33 -1.02 1.66 0 2 C0 1.34 0 0.68 0 0 Z " fill="#422B24" transform="translate(127,79)"/>
<path d="M0 0 C0.33 0 0.66 0 1 0 C1.185625 1.5778125 1.185625 1.5778125 1.375 3.1875 C1.91140782 6.45958771 2.63880035 9.00536076 4 12 C1.525 11.01 1.525 11.01 -1 10 C-0.67 6.7 -0.34 3.4 0 0 Z " fill="#C9C3BA" transform="translate(49,74)"/>
<path d="M0 0 C0.33 0 0.66 0 1 0 C1.28875 1.134375 1.5775 2.26875 1.875 3.4375 C2.24625 4.613125 2.6175 5.78875 3 7 C3.66 7.33 4.32 7.66 5 8 C4.34 8.66 3.68 9.32 3 10 C1.68 9.67 0.36 9.34 -1 9 C-0.67 6.03 -0.34 3.06 0 0 Z " fill="#1C1110" transform="translate(142,72)"/>
<path d="M0 0 C0.33 0 0.66 0 1 0 C1.49230769 7.26153846 1.49230769 7.26153846 -1 11 C-1.66 11.66 -2.32 12.32 -3 13 C-3.33 12.34 -3.66 11.68 -4 11 C-3.0421975 8.64903024 -2.03842565 6.31648799 -1 4 C-0.62691369 2.67723944 -0.26953585 1.34767923 0 0 Z " fill="#DBBAAA" transform="translate(140,72)"/>
<path d="M0 0 C3.46941546 0.45822468 6.67395049 0.89131683 10 2 C10 2.66 10 3.32 10 4 C8.35 4 6.7 4 5 4 C5 3.34 5 2.68 5 2 C3.35 2 1.7 2 0 2 C0 1.34 0 0.68 0 0 Z " fill="#20120E" transform="translate(102,184)"/>
<path d="M0 0 C1.65 1.65 3.3 3.3 5 5 C4.01 5.99 3.02 6.98 2 8 C1.34 7.67 0.68 7.34 0 7 C-1.26229508 2.52459016 -1.26229508 2.52459016 0 0 Z " fill="#EAE1D1" transform="translate(42,184)"/>
<path d="M0 0 C0.33 0.66 0.66 1.32 1 2 C3.35599235 2.46751788 3.35599235 2.46751788 6.0625 2.625 C7.44115234 2.73714844 7.44115234 2.73714844 8.84765625 2.8515625 C9.55792969 2.90054688 10.26820312 2.94953125 11 3 C11 3.33 11 3.66 11 4 C7.37 4.33 3.74 4.66 0 5 C0 3.35 0 1.7 0 0 Z " fill="#AC8E86" transform="translate(86,96)"/>
<path d="M0 0 C0.99 0.33 1.98 0.66 3 1 C2.67 3.97 2.34 6.94 2 10 C1.34 10 0.68 10 0 10 C0 6.7 0 3.4 0 0 Z " fill="#373031" transform="translate(53,84)"/>
<path d="M0 0 C0.99 0.33 1.98 0.66 3 1 C2.67 1.99 2.34 2.98 2 4 C-0.31 4.33 -2.62 4.66 -5 5 C-4.67 4.01 -4.34 3.02 -4 2 C-2 3 -2 3 -1 4 C-0.67 2.68 -0.34 1.36 0 0 Z " fill="#1D1918" transform="translate(93,80)"/>
<path d="M0 0 C0.66 0.66 1.32 1.32 2 2 C-1.32307692 6.8 -1.32307692 6.8 -4.75 7.8125 C-5.4925 7.874375 -6.235 7.93625 -7 8 C-6.02133662 6.85373678 -5.04205413 5.70800212 -4.0625 4.5625 C-3.51722656 3.92441406 -2.97195312 3.28632812 -2.41015625 2.62890625 C-1.63204305 1.73008851 -0.84063472 0.84063472 0 0 Z " fill="#90766F" transform="translate(111,77)"/>
<path d="M0 0 C0.66 0.33 1.32 0.66 2 1 C2 3.64 2 6.28 2 9 C1.01 8.67 0.02 8.34 -1 8 C-1.04241723 5.66705225 -1.04092937 3.33297433 -1 1 C-0.67 0.67 -0.34 0.34 0 0 Z " fill="#211A1D" transform="translate(67,44)"/>
<path d="M0 0 C1.485 0.99 1.485 0.99 3 2 C3.3125 5 3.3125 5 3 8 C2.34 8.66 1.68 9.32 1 10 C0.63883954 8.5225254 0.28624952 7.04295325 -0.0625 5.5625 C-0.25972656 4.73878906 -0.45695312 3.91507813 -0.66015625 3.06640625 C-0.82837891 2.04353516 -0.82837891 2.04353516 -1 1 C-0.67 0.67 -0.34 0.34 0 0 Z " fill="#E6DAD1" transform="translate(128,24)"/>
<path d="M0 0 C2.475 0.99 2.475 0.99 5 2 C5 2.66 5 3.32 5 4 C5.66 4.33 6.32 4.66 7 5 C4.69 5 2.38 5 0 5 C0 3.35 0 1.7 0 0 Z " fill="#E6C6B4" transform="translate(140,108)"/>
<path d="M0 0 C2.33333333 2.33333333 4.66666667 4.66666667 7 7 C4.75 7.25 4.75 7.25 2 7 C-0.3125 5 -0.3125 5 -2 3 C-1.34 2.01 -0.68 1.02 0 0 Z " fill="#E2C6B3" transform="translate(130,104)"/>
<path d="M0 0 C0.99 0.99 1.98 1.98 3 3 C2.67 3.99 2.34 4.98 2 6 C1.34 6 0.68 6 0 6 C-0.33 6.66 -0.66 7.32 -1 8 C-1.04241723 5.66705225 -1.04092937 3.33297433 -1 1 C-0.67 0.67 -0.34 0.34 0 0 Z " fill="#EFB5A4" transform="translate(136,71)"/>
<path d="M0 0 C0.33 0 0.66 0 1 0 C0.979375 0.94875 0.95875 1.8975 0.9375 2.875 C0.77448174 5.90666283 0.77448174 5.90666283 2 8 C1.34 8 0.68 8 0 8 C-0.33 8.66 -0.66 9.32 -1 10 C-1.66 8.68 -2.32 7.36 -3 6 C-2.34 6 -1.68 6 -1 6 C-0.67 4.02 -0.34 2.04 0 0 Z " fill="#A69C98" transform="translate(163,46)"/>
<path d="M0 0 C1.32 0.66 2.64 1.32 4 2 C4 3.98 4 5.96 4 8 C3.01 7.67 2.02 7.34 1 7 C0.09162237 4.52260646 0 2.66420516 0 0 Z " fill="#524A4D" transform="translate(67,42)"/>
<path d="M0 0 C2.31 0.66 4.62 1.32 7 2 C7 3.32 7 4.64 7 6 C6.01 5.67 5.02 5.34 4 5 C4 4.34 4 3.68 4 3 C2.68 2.67 1.36 2.34 0 2 C0 1.34 0 0.68 0 0 Z " fill="#CBB0A5" transform="translate(131,164)"/>
<path d="M0 0 C0.33 1.32 0.66 2.64 1 4 C-1.97 6.475 -1.97 6.475 -5 9 C-5.99 8.34 -6.98 7.68 -8 7 C-7.05125 6.5875 -6.1025 6.175 -5.125 5.75 C-1.99283376 3.9959869 -1.13499394 3.29148243 0 0 Z " fill="#35271E" transform="translate(87,158)"/>
<path d="M0 0 C0.33 0.66 0.66 1.32 1 2 C2.98 2 4.96 2 7 2 C7 2.66 7 3.32 7 4 C6.01 4 5.02 4 4 4 C3.67 4.99 3.34 5.98 3 7 C2.01 6.34 1.02 5.68 0 5 C-0.1875 2.375 -0.1875 2.375 0 0 Z " fill="#1B0D19" transform="translate(150,78)"/>
<path d="M0 0 C0 0.66 0 1.32 0 2 C1.65 2 3.3 2 5 2 C5 2.33 5 2.66 5 3 C4.30132812 2.98839844 3.60265625 2.97679687 2.8828125 2.96484375 C1.97273438 2.95582031 1.06265625 2.94679687 0.125 2.9375 C-0.77992187 2.92589844 -1.68484375 2.91429687 -2.6171875 2.90234375 C-5.0168585 2.83750743 -5.0168585 2.83750743 -7 4 C-6.67 3.01 -6.34 2.02 -6 1 C-3 0 -3 0 0 0 Z " fill="#211A1D" transform="translate(99,31)"/>
<path d="M0 0 C0.33 0.99 0.66 1.98 1 3 C-1.64738916 4.4606285 -2.89448334 5 -6 5 C-6 4.34 -6 3.68 -6 3 C-4.02 2.01 -2.04 1.02 0 0 Z " fill="#30231E" transform="translate(130,182)"/>
<path d="M0 0 C2.31 0.66 4.62 1.32 7 2 C6.67 2.66 6.34 3.32 6 4 C3.69 3.67 1.38 3.34 -1 3 C-0.67 2.01 -0.34 1.02 0 0 Z " fill="#E3B5A6" transform="translate(101,145)"/>
<path d="M0 0 C2.76223278 2.76223278 2.57856291 5.20706617 3 9 C2.01 8.67 1.02 8.34 0 8 C0 5.36 0 2.72 0 0 Z " fill="#F1B296" transform="translate(92,126)"/>
<path d="M0 0 C0.66 0.66 1.32 1.32 2 2 C1.01 4.31 0.02 6.62 -1 9 C-1.33 9 -1.66 9 -2 9 C-2.25 3.375 -2.25 3.375 0 0 Z " fill="#E1C9B9" transform="translate(151,124)"/>
<path d="M0 0 C0.66 0.33 1.32 0.66 2 1 C1.1875 3.4375 1.1875 3.4375 0 6 C-0.99 6.33 -1.98 6.66 -3 7 C-2.38722388 4.03824877 -1.74627478 2.61941217 0 0 Z " fill="#EECABC" transform="translate(138,114)"/>
<path d="M0 0 C0.268125 0.5775 0.53625 1.155 0.8125 1.75 C2.01719859 4.0325868 3.40798115 5.9737942 5 8 C4.01 8 3.02 8 2 8 C0.25 6.25 0.25 6.25 -1 4 C-0.6875 1.75 -0.6875 1.75 0 0 Z " fill="#442721" transform="translate(98,108)"/>
<path d="M0 0 C0.33 0 0.66 0 1 0 C2.47075246 4.41225737 3.36884358 7.48281619 2 12 C-0.60018816 8.09971775 -0.15085514 4.52565431 0 0 Z " fill="#D4BAAC" transform="translate(98,100)"/>
<path d="M0 0 C0.99 0.33 1.98 0.66 3 1 C3 2.32 3 3.64 3 5 C1.68 5 0.36 5 -1 5 C-0.67 3.35 -0.34 1.7 0 0 Z " fill="#291F1B" transform="translate(111,100)"/>
<path d="M0 0 C0.99 0 1.98 0 3 0 C3.33 0.99 3.66 1.98 4 3 C3.67 3.66 3.34 4.32 3 5 C1.68 5 0.36 5 -1 5 C-0.67 3.35 -0.34 1.7 0 0 Z " fill="#E2AA93" transform="translate(88,92)"/>
<path d="M0 0 C0.66 0.33 1.32 0.66 2 1 C1.34 3.64 0.68 6.28 0 9 C-0.66 9 -1.32 9 -2 9 C-1.34 6.03 -0.68 3.06 0 0 Z " fill="#E2D8D4" transform="translate(166,69)"/>
<path d="M0 0 C2.875 -0.1875 2.875 -0.1875 6 0 C6.66 0.99 7.32 1.98 8 3 C6.68 2.67 5.36 2.34 4 2 C4 2.66 4 3.32 4 4 C1.525 3.01 1.525 3.01 -1 2 C-0.67 1.34 -0.34 0.68 0 0 Z " fill="#1A171C" transform="translate(138,43)"/>
<path d="M0 0 C0.66 0 1.32 0 2 0 C1.25 6.75 1.25 6.75 -1 9 C-1.80967438 6.08517222 -2.21845993 4.53886783 -1.0625 1.6875 C-0.711875 1.130625 -0.36125 0.57375 0 0 Z " fill="#3D322F" transform="translate(144,30)"/>
<path d="M0 0 C3 1.1875 3 1.1875 5 3.1875 C-1.625 2.4375 -1.625 2.4375 -5 0.1875 C-3 -0.8125 -3 -0.8125 0 0 Z " fill="#C09688" transform="translate(111,144.8125)"/>
<path d="M0 0 C0.99 0.33 1.98 0.66 3 1 C2 4 2 4 0 6 C-2.125 5.625 -2.125 5.625 -4 5 C-3.01 4.67 -2.02 4.34 -1 4 C-0.26676204 1.98491642 -0.26676204 1.98491642 0 0 Z " fill="#E4C0AD" transform="translate(111,108)"/>
<path d="M0 0 C1.73543126 2.60314689 2.61121812 3.98694043 3 7 C2.34 7.66 1.68 8.32 1 9 C1 7.68 1 6.36 1 5 C0.34 5 -0.32 5 -1 5 C-0.67 3.35 -0.34 1.7 0 0 Z " fill="#F6D6C3" transform="translate(108,103)"/>
<path d="M0 0 C0.66 0 1.32 0 2 0 C0.50902342 3.7952131 -1.75700849 5.61042731 -5 8 C-4.34 6.35 -3.68 4.7 -3 3 C-2.34 3 -1.68 3 -1 3 C-0.67 2.01 -0.34 1.02 0 0 Z " fill="#706C74" transform="translate(60,60)"/>
<path d="M0 0 C-2.1385485 2.1385485 -3.13275314 2.42655063 -6 3 C-6.66 2.01 -7.32 1.02 -8 0 C-4.94736336 -0.98120464 -3.05263664 -0.98120464 0 0 Z " fill="#F0E3D3" transform="translate(73,37)"/>
<path d="M0 0 C-1.0625 1.5 -1.0625 1.5 -3 3 C-6.6875 3.1875 -6.6875 3.1875 -10 3 C-6.1865669 0.45771127 -4.5252563 -0.11908569 0 0 Z " fill="#FDEDE3" transform="translate(112,28)"/>
</svg>
