<?xml version="1.0" encoding="UTF-8"?>
<svg version="1.1" xmlns="http://www.w3.org/2000/svg" width="210" height="246">
<path d="M0 0 C4.13121761 1.83472968 7.9832655 4.08258432 11.875 6.375 C13.55154663 7.33901733 13.55154663 7.33901733 15.26196289 8.32250977 C18.51731513 10.19948862 21.76035224 12.0960743 25 14 C26.5012173 14.87644733 28.00250721 15.7527703 29.50390625 16.62890625 C32.16395909 18.18681173 34.81756007 19.75519284 37.46875 21.328125 C43.09867833 24.66001895 48.76918237 27.92149323 54.4375 31.1875 C56.0776709 32.13254395 56.0776709 32.13254395 57.75097656 33.09667969 C60.00771646 34.39665111 62.26455391 35.6964532 64.52148438 36.99609375 C68.08319577 39.04746236 71.64332403 41.10156839 75.203125 43.15625 C75.79154678 43.49586258 76.37996857 43.83547516 76.98622131 44.18537903 C79.81109084 45.81580862 82.63590443 47.44633508 85.46069336 49.0769043 C86.47784424 49.66383057 87.49499512 50.25075684 88.54296875 50.85546875 C89.43008545 51.36746826 90.31720215 51.87946777 91.23120117 52.40698242 C94.48352348 54.27819334 97.74217509 56.13838577 101 58 C101 76.15 101 94.3 101 113 C96.71543596 111.57181199 93.8089992 110.48701477 90.078125 108.26953125 C89.14887207 107.72176025 88.21961914 107.17398926 87.26220703 106.60961914 C86.26817871 106.01656982 85.27415039 105.42352051 84.25 104.8125 C82.08632451 103.53580222 79.92224834 102.25978329 77.7578125 100.984375 C76.64180664 100.32501953 75.52580078 99.66566406 74.37597656 98.98632812 C68.9787367 95.81074644 63.55236 92.6862344 58.125 89.5625 C55.94008624 88.30341652 53.75519051 87.04430177 51.5703125 85.78515625 C49.94270996 84.84760498 49.94270996 84.84760498 48.28222656 83.89111328 C42.85340058 80.76319852 37.42680719 77.63141552 32 74.5 C29.83334417 73.24998121 27.6666775 71.99998122 25.5 70.75 C19 67 19 67 12.5 63.25 C11.4267749 62.63084717 10.3535498 62.01169434 9.24780273 61.3737793 C7.08840605 60.1279423 4.92906331 58.88201182 2.76977539 57.63598633 C-2.75767597 54.44651047 -8.28615121 51.25883115 -13.81640625 48.07421875 C-19.23496277 44.95370033 -24.64941447 41.82615391 -30.06201172 38.6953125 C-32.84074516 37.0918951 -35.62482273 35.49816527 -38.41015625 33.90625 C-39.98196034 33.00032871 -41.5535889 32.09410279 -43.125 31.1875 C-43.83599854 30.78490967 -44.54699707 30.38231934 -45.27954102 29.9675293 C-46.88694033 29.03447159 -48.44992203 28.02546941 -50 27 C-50 26.34 -50 25.68 -50 25 C-49.23034912 24.56244385 -48.46069824 24.1248877 -47.66772461 23.67407227 C-44.74042979 22.00874245 -41.81409123 20.34175355 -38.88827515 18.67382812 C-37.59083578 17.93469586 -36.29300606 17.19624836 -34.99478149 16.45849609 C-25.94254501 11.32846367 -25.94254501 11.32846367 -17.046875 5.93359375 C-16.37406494 5.51198975 -15.70125488 5.09038574 -15.00805664 4.65600586 C-13.32348532 3.58634712 -11.65137948 2.49712473 -9.98046875 1.40625 C-6.10043367 -0.42443497 -4.27729677 -0.68471417 0 0 Z " fill="#5309D6" transform="translate(107,0)"/>
<path d="M0 0 C3.76716237 1.46971074 7.19053264 3.1502078 10.69921875 5.16796875 C11.81248535 5.80613525 12.92575195 6.44430176 14.07275391 7.10180664 C15.27771682 7.79695534 16.4826309 8.4921887 17.6875 9.1875 C18.94434799 9.90968618 20.20134912 10.6316059 21.45849609 11.35327148 C24.68637148 13.20743067 27.91189349 15.06563953 31.13653564 16.92541504 C33.99525204 18.57392183 36.85518454 20.22031688 39.71484375 21.8671875 C45.06997557 24.95311315 50.42202133 28.04435539 55.7734375 31.13671875 C59.03524007 33.0203505 62.29861844 34.90122321 65.5625 36.78125 C76.01713025 42.80439782 86.46042745 48.84532106 96.875 54.9375 C109.0689795 62.06796413 121.33317048 69.07264574 133.60644531 76.06542969 C139.40702492 79.37217737 145.20341263 82.68626056 151 86 C148.09503379 89.14190519 145.19704907 91.24194331 141.484375 93.35546875 C140.40502686 93.97421875 139.32567871 94.59296875 138.21362305 95.23046875 C137.07062744 95.87628906 135.92763184 96.52210938 134.75 97.1875 C133.57247397 97.85642142 132.39514734 98.52569398 131.21801758 99.1953125 C128.88789091 100.52010542 126.55601319 101.84164374 124.22314453 103.16162109 C121.43193785 104.75363642 118.66227851 106.37415306 115.90234375 108.01953125 C115.1762793 108.44661377 114.45021484 108.87369629 113.70214844 109.3137207 C112.39825371 110.08148906 111.10023693 110.85936652 109.80957031 111.64916992 C107.28399323 113.11484317 105.59222933 114.05959002 102.63671875 113.76220703 C99.68265093 112.90826261 97.38924246 111.70698664 94.73828125 110.1484375 C93.20397461 109.25415039 93.20397461 109.25415039 91.63867188 108.34179688 C90.54103516 107.69275391 89.44339844 107.04371094 88.3125 106.375 C87.15083078 105.69521082 85.98871307 105.01618752 84.82617188 104.33789062 C82.41182554 102.92841697 79.99944078 101.51567013 77.58837891 100.10058594 C72.07681333 96.8694443 66.5369516 93.6873663 61 90.5 C58.83843067 89.25279651 56.67697275 88.00539993 54.515625 86.7578125 C50.13202206 84.22860804 45.74640689 81.70293925 41.359375 79.1796875 C40.25207031 78.54224609 39.14476562 77.90480469 38.00390625 77.24804688 C35.95501346 76.0686422 33.90560689 74.89012919 31.85546875 73.71289062 C29.82968681 72.54624523 27.82149509 71.34870573 25.82861328 70.12670898 C22.775059 68.32666152 19.62933541 66.99341689 16.35498047 65.64086914 C1.57639599 59.04351294 1.57639599 59.04351294 -1.14306641 52.06799316 C-2.74973037 43.63363741 -2.00653179 35.19151429 -1.375 26.6875 C-1.26450813 24.09742144 -1.16415126 21.50688952 -1.07421875 18.91601562 C-0.83304339 12.60070353 -0.46638686 6.30247189 0 0 Z " fill="#5309D7" transform="translate(0,125)"/>
<path d="M0 0 C2.00556029 0.98967361 3.97337229 2.05748173 5.91015625 3.17578125 C6.47115524 3.49728149 7.03215424 3.81878174 7.6101532 4.15002441 C9.43194232 5.19685923 11.24744604 6.25403664 13.0625 7.3125 C14.31591292 8.03829444 15.56949491 8.76379697 16.82324219 9.48901367 C19.34686029 10.95121442 21.86724024 12.41879538 24.38525391 13.890625 C27.67983614 15.81604582 30.98597983 17.7209599 34.29296875 19.625 C36.11275921 20.68616344 37.93182294 21.74857457 39.75 22.8125 C40.5944165 23.2969458 41.43883301 23.7813916 42.30883789 24.28051758 C43.06801514 24.73064209 43.82719238 25.1807666 44.609375 25.64453125 C45.26905273 26.02971924 45.92873047 26.41490723 46.60839844 26.81176758 C47.06762695 27.20388428 47.52685547 27.59600098 48 28 C48 28.99 48 29.98 48 31 C47.31075439 31.38220703 46.62150879 31.76441406 45.91137695 32.15820312 C42.71004136 33.93574251 39.51121077 35.71774172 36.3125 37.5 C35.16740967 38.13550781 34.02231934 38.77101562 32.8425293 39.42578125 C25.64756608 43.43359573 25.64756608 43.43359573 18.65625 47.78125 C18.07190186 48.16474609 17.48755371 48.54824219 16.88549805 48.94335938 C15.42776352 49.92257325 13.9883741 50.9289483 12.55078125 51.9375 C10 53 10 53 7.34765625 52.578125 C2.42860926 50.2592277 -2.20569508 47.5324662 -6.875 44.75 C-9.00771224 43.4920175 -11.14052799 42.23421049 -13.2734375 40.9765625 C-14.37268555 40.3259082 -15.47193359 39.67525391 -16.60449219 39.00488281 C-22.22243871 35.68775765 -27.86208455 32.40805184 -33.5 29.125 C-35.53135171 27.94027854 -37.56261123 26.755399 -39.59375 25.5703125 C-40.44646484 25.07289551 -41.29917969 24.57547852 -42.17773438 24.06298828 C-42.77908203 23.71220215 -43.38042969 23.36141602 -44 23 C-41.22743401 20.02085538 -38.55598669 17.97855774 -35 16.01171875 C-34.03562012 15.47305176 -33.07124023 14.93438477 -32.07763672 14.37939453 C-30.55420654 13.54190674 -30.55420654 13.54190674 -29 12.6875 C-26.91869261 11.53359441 -24.83795761 10.37865577 -22.7578125 9.22265625 C-21.76168945 8.66980957 -20.76556641 8.11696289 -19.73925781 7.54736328 C-15.50993703 5.15828707 -11.39345602 2.59884261 -7.3046875 -0.0234375 C-4.32742698 -1.28498857 -3.1002701 -0.8640097 0 0 Z " fill="#530AD5" transform="translate(153,153)"/>
<path d="M0 0 C0.8343457 0.45713379 1.66869141 0.91426758 2.52832031 1.38525391 C3.459104 1.88202637 4.3898877 2.37879883 5.34887695 2.890625 C6.87822876 3.76581787 6.87822876 3.76581787 8.43847656 4.65869141 C9.27997505 5.13888733 9.27997505 5.13888733 10.13847351 5.62878418 C11.95809719 6.66886434 13.77469137 7.71408486 15.59082031 8.76025391 C16.20904663 9.11541077 16.82727295 9.47056763 17.4642334 9.83648682 C21.82510347 12.34213259 26.17852297 14.86044286 30.52832031 17.38525391 C32.14552979 18.32304688 32.14552979 18.32304688 33.79541016 19.27978516 C36.62924073 20.92969007 39.45555343 22.59150746 42.27832031 24.26025391 C43.12273682 24.75315918 43.96715332 25.24606445 44.8371582 25.75390625 C45.59633545 26.20717285 46.3555127 26.66043945 47.13769531 27.12744141 C47.79737305 27.51786621 48.45705078 27.90829102 49.13671875 28.31054688 C49.82556152 28.84252686 49.82556152 28.84252686 50.52832031 29.38525391 C50.52832031 30.04525391 50.52832031 30.70525391 50.52832031 31.38525391 C49.83907471 31.76746094 49.1498291 32.14966797 48.43969727 32.54345703 C45.23836122 34.32099667 42.03943549 36.10282294 38.84082031 37.88525391 C37.69572998 38.52148682 36.55063965 39.15771973 35.37084961 39.81323242 C28.41328673 43.70007554 21.64483686 47.70244831 15.07910156 52.22509766 C11.74349362 53.74221184 10.06523702 53.21463389 6.52832031 52.38525391 C4.02490234 51.20874023 4.02490234 51.20874023 1.53613281 49.71728516 C0.59447266 49.15992676 -0.3471875 48.60256836 -1.31738281 48.02832031 C-2.31705078 47.4242334 -3.31671875 46.82014648 -4.34667969 46.19775391 C-6.4793245 44.93054457 -8.61214245 43.66362658 -10.74511719 42.39697266 C-12.39398926 41.41156494 -12.39398926 41.41156494 -14.07617188 40.40625 C-19.68491753 37.06794136 -25.32962053 33.79189443 -30.97167969 30.51025391 C-33.0030992 29.32564871 -35.03436508 28.14078 -37.06542969 26.95556641 C-37.91814453 26.45814941 -38.77085938 25.96073242 -39.64941406 25.44824219 C-40.25076172 25.09745605 -40.85210937 24.74666992 -41.47167969 24.38525391 C-40.1608067 20.45263494 -38.6783288 20.0700136 -35.10839844 18.05712891 C-33.99271484 17.42162109 -32.87703125 16.78611328 -31.72753906 16.13134766 C-30.53825209 15.46568614 -29.34879825 14.80032265 -28.15917969 14.13525391 C-25.87127019 12.83864193 -23.58350908 11.54176808 -21.29589844 10.24462891 C-19.59699463 9.29620117 -19.59699463 9.29620117 -17.86376953 8.32861328 C-15.5859775 7.02364534 -13.33573226 5.66948311 -11.11474609 4.27001953 C-10.06335449 3.61195312 -9.01196289 2.95388672 -7.92871094 2.27587891 C-6.99647705 1.67291992 -6.06424316 1.06996094 -5.10375977 0.44873047 C-2.47167969 -0.61474609 -2.47167969 -0.61474609 0 0 Z " fill="#5309D6" transform="translate(47.4716796875,32.61474609375)"/>
<path d="M0 0 C15.91841341 8.41197983 15.91841341 8.41197983 23.125 12.75 C33.00886177 18.63159794 43.00582539 24.30795353 53 30 C53 45.51 53 61.02 53 77 C48.69456402 76.1389128 46.70864497 75.47764033 43.10546875 73.33203125 C42.16058594 72.77854004 41.21570312 72.22504883 40.2421875 71.65478516 C38.1603025 70.39919818 36.08899904 69.1259369 34.02734375 67.83740234 C28.47004061 64.41145126 23.31797596 61.62721017 17.08203125 59.64453125 C9.91963774 57.07776755 3.93348403 54.83676986 0 48 C-3.7460984 32.75746181 -1.44412407 15.45229132 0 0 Z " fill="#5309D7" transform="translate(0,65)"/>
<path d="M0 0 C3.99230524 1.22625211 7.44246472 2.66409145 11.02734375 4.80078125 C11.97416016 5.36007324 12.92097656 5.91936523 13.89648438 6.49560547 C14.90001953 7.09518066 15.90355469 7.69475586 16.9375 8.3125 C19.07079909 9.57299576 21.20493747 10.832072 23.33984375 12.08984375 C24.43280762 12.73421387 25.52577148 13.37858398 26.65185547 14.04248047 C35.3704153 19.13985634 44.19802861 24.04889109 53 29 C53 44.51 53 60.02 53 76 C48.69456402 75.1389128 46.70864497 74.47764033 43.10546875 72.33203125 C41.68814453 71.50167358 41.68814453 71.50167358 40.2421875 70.65454102 C38.16059358 69.39929596 36.08928202 68.12687736 34.02734375 66.83959961 C28.47248601 63.41806306 23.30318301 60.62171187 17.08203125 58.609375 C9.96735432 56.02651124 3.95202535 53.77392043 0 47 C-3.72979718 32.09463363 -1.4445249 15.11701317 0 0 Z " fill="#5309D6" transform="translate(155,96)"/>
<path d="M0 0 C2.79919326 1.48208364 5.55547508 3.00056381 8.28588867 4.60668945 C9.35258789 5.23188477 10.41928711 5.85708008 11.51831055 6.5012207 C12.62110352 7.15219727 13.72389648 7.80317383 14.86010742 8.47387695 C15.98223633 9.13258789 17.10436523 9.79129883 18.26049805 10.4699707 C21.02469398 12.09320066 23.78697374 13.7195985 26.54760742 15.34887695 C25.22760742 15.67887695 23.90760742 16.00887695 22.54760742 16.34887695 C22.54760742 15.68887695 22.54760742 15.02887695 22.54760742 14.34887695 C20.56760742 14.01887695 18.58760742 13.68887695 16.54760742 13.34887695 C16.54760742 12.68887695 16.54760742 12.02887695 16.54760742 11.34887695 C15.76385742 11.39012695 14.98010742 11.43137695 14.17260742 11.47387695 C11.54760742 11.34887695 11.54760742 11.34887695 9.54760742 9.34887695 C9.21760742 10.00887695 8.88760742 10.66887695 8.54760742 11.34887695 C7.88760742 11.34887695 7.22760742 11.34887695 6.54760742 11.34887695 C6.54760742 12.00887695 6.54760742 12.66887695 6.54760742 13.34887695 C5.22760742 13.34887695 3.90760742 13.34887695 2.54760742 13.34887695 C2.54760742 12.68887695 2.54760742 12.02887695 2.54760742 11.34887695 C1.22760742 11.34887695 -0.09239258 11.34887695 -1.45239258 11.34887695 C-1.78239258 10.35887695 -2.11239258 9.36887695 -2.45239258 8.34887695 C-0.80239258 6.69887695 0.84760742 5.04887695 2.54760742 3.34887695 C0.4219043 3.82491469 -1.70293685 4.30480293 -3.82739258 4.78637695 C-5.60243164 5.18663086 -5.60243164 5.18663086 -7.41333008 5.5949707 C-10.34733838 6.2052239 -10.34733838 6.2052239 -12.45239258 7.34887695 C-12.57614258 7.98825195 -12.69989258 8.62762695 -12.82739258 9.28637695 C-13.45239258 11.34887695 -13.45239258 11.34887695 -15.19458008 12.4387207 C-17.60202385 13.40919544 -19.62296439 13.74628035 -22.20239258 13.97387695 C-23.00161133 14.04864258 -23.80083008 14.1234082 -24.62426758 14.20043945 C-25.52918945 14.27391602 -25.52918945 14.27391602 -26.45239258 14.34887695 C-22.68891468 10.24929258 -17.8412479 7.81421962 -13.07739258 5.03637695 C-12.1312207 4.46081055 -11.18504883 3.88524414 -10.21020508 3.29223633 C-8.83348633 2.49076172 -8.83348633 2.49076172 -7.42895508 1.6730957 C-6.59444824 1.17898193 -5.75994141 0.68486816 -4.90014648 0.17578125 C-2.45239258 -0.65112305 -2.45239258 -0.65112305 0 0 Z " fill="#520CD1" transform="translate(47.452392578125,32.651123046875)"/>
<path d="M0 0 C1.98 0.66 3.96 1.32 6 2 C6 17.51 6 33.02 6 49 C1.25229759 48.05045952 -1.25028512 46.89268482 -5.3125 44.4375 C-6.91544922 43.47650391 -6.91544922 43.47650391 -8.55078125 42.49609375 C-9.35902344 42.00238281 -10.16726562 41.50867188 -11 41 C-8.35261084 39.5393715 -7.10551666 39 -4 39 C-3.67 40.65 -3.34 42.3 -3 44 C-1.515 43.505 -1.515 43.505 0 43 C0.66 44.32 1.32 45.64 2 47 C2.66 47 3.32 47 4 47 C3.67 32.48 3.34 17.96 3 3 C2.01 2.67 1.02 2.34 0 2 C0 1.34 0 0.68 0 0 Z " fill="#4E1AB1" transform="translate(47,93)"/>
<path d="M0 0 C0.66 0.33 1.32 0.66 2 1 C1.34 1.433125 0.68 1.86625 0 2.3125 C-0.66 2.869375 -1.32 3.42625 -2 4 C-2 4.99 -2 5.98 -2 7 C-0.02 6.34 1.96 5.68 4 5 C2.5 11 2.5 11 1 17 C-4.31027254 15.53967505 -8.46330032 13.01679014 -13 10 C-11.64649404 5.93948213 -9.72487336 5.35771547 -6.0625 3.25 C-4.98097656 2.61578125 -3.89945313 1.9815625 -2.78515625 1.328125 C-1.86605469 0.88984375 -0.94695313 0.4515625 0 0 Z " fill="#520ACF" transform="translate(19,47)"/>
<path d="M0 0 C2.02045442 0.60183749 4.02111039 1.27306096 6 2 C6.33 2.66 6.66 3.32 7 4 C5.68 4 4.36 4 3 4 C2.67 18.19 2.34 32.38 2 47 C2.99 47.33 3.98 47.66 5 48 C4.01 48.495 4.01 48.495 3 49 C2.01 48.34 1.02 47.68 0 47 C-0.36076355 44.97518921 -0.36076355 44.97518921 -0.34057617 42.45849609 C-0.34034958 41.51767181 -0.34012299 40.57684753 -0.33988953 39.60751343 C-0.32440567 38.58976837 -0.30892181 37.57202332 -0.29296875 36.5234375 C-0.28872391 35.48305328 -0.28447906 34.44266907 -0.28010559 33.37075806 C-0.26327482 30.03857853 -0.22561422 26.70699759 -0.1875 23.375 C-0.17245887 21.11980038 -0.15876947 18.86459131 -0.14648438 16.609375 C-0.11335699 11.07271145 -0.0631142 5.53639848 0 0 Z " fill="#4D1CAF" transform="translate(155,96)"/>
<path d="M0 0 C1.98 0.66 3.96 1.32 6 2 C6 17.51 6 33.02 6 49 C1.51116463 48.10223293 -0.57302472 47.28090451 -4.3125 44.9375 C-5.19550781 44.38964844 -6.07851562 43.84179688 -6.98828125 43.27734375 C-7.65214844 42.85582031 -8.31601563 42.43429688 -9 42 C-7.125 41.375 -7.125 41.375 -5 41 C-4.34 41.66 -3.68 42.32 -3 43 C0.29714793 42.67028521 1.6226839 42.3773161 4 40 C4.24569272 37.20783209 4.37363138 34.50759395 4.4140625 31.7109375 C4.43342865 30.89251373 4.4527948 30.07408997 4.4727478 29.23086548 C4.53261082 26.61235024 4.57895532 23.99379119 4.625 21.375 C4.66317364 19.60154314 4.70222501 17.82810495 4.7421875 16.0546875 C4.83831771 11.70327625 4.92232351 7.35177821 5 3 C2.03 2.505 2.03 2.505 -1 2 C-0.67 1.34 -0.34 0.68 0 0 Z " fill="#5A26C2" transform="translate(202,123)"/>
<path d="M0 0 C2.30974745 1.23413687 4.30519225 2.59413415 6.33349609 4.24682617 C5.77662109 4.22362305 5.21974609 4.20041992 4.64599609 4.17651367 C-1.44925041 4.03236933 -7.11016431 4.46865637 -12.66650391 7.24682617 C-12.79025391 7.88620117 -12.91400391 8.52557617 -13.04150391 9.18432617 C-13.66650391 11.24682617 -13.66650391 11.24682617 -15.40869141 12.33666992 C-17.81613517 13.30714466 -19.83707572 13.64422957 -22.41650391 13.87182617 C-23.21572266 13.9465918 -24.01494141 14.02135742 -24.83837891 14.09838867 C-25.74330078 14.17186523 -25.74330078 14.17186523 -26.66650391 14.24682617 C-22.90302601 10.1472418 -18.05535923 7.71216884 -13.29150391 4.93432617 C-12.34533203 4.35875977 -11.39916016 3.78319336 -10.42431641 3.19018555 C-9.04759766 2.38871094 -9.04759766 2.38871094 -7.64306641 1.57104492 C-6.80855957 1.07693115 -5.97405273 0.58281738 -5.11425781 0.07373047 C-2.66650391 -0.75317383 -2.66650391 -0.75317383 0 0 Z " fill="#4D15BF" transform="translate(47.66650390625,32.753173828125)"/>
<path d="M0 0 C1.98498051 0.92512666 3.96286018 1.86550237 5.9375 2.8125 C7.03964844 3.33457031 8.14179687 3.85664062 9.27734375 4.39453125 C12 6 12 6 13 9 C11.54462432 9.83848804 10.08559627 10.67063934 8.625 11.5 C7.81289062 11.9640625 7.00078125 12.428125 6.1640625 12.90625 C4 14 4 14 2 14 C2.33 12.35 2.66 10.7 3 9 C2.34 8.67 1.68 8.34 1 8 C1.99 7.34 2.98 6.68 4 6 C4.66 6.33 5.32 6.66 6 7 C6 6.01 6 5.02 6 4 C4.68 4 3.36 4 2 4 C2 3.34 2 2.68 2 2 C1.34 2 0.68 2 0 2 C0 1.34 0 0.68 0 0 Z " fill="#500FC9" transform="translate(85,55)"/>
<path d="M0 0 C0 0.66 0 1.32 0 2 C-1.31787285 3.02028865 -2.65210653 4.01971384 -4 5 C-4.33 5.66 -4.66 6.32 -5 7 C-5.66 7 -6.32 7 -7 7 C-7.33 8.32 -7.66 9.64 -8 11 C-10.3125 11.625 -10.3125 11.625 -13 12 C-13.99 11.34 -14.98 10.68 -16 10 C-16 9.34 -16 8.68 -16 8 C-13.71125827 6.66141476 -11.41930344 5.32898986 -9.125 4 C-8.47402344 3.6184375 -7.82304688 3.236875 -7.15234375 2.84375 C-2.2265625 0 -2.2265625 0 0 0 Z " fill="#4D13C4" transform="translate(73,17)"/>
<path d="M0 0 C7.04988124 0.66508314 7.04988124 0.66508314 10 4 C11.97620986 5.04622875 13.9737129 6.05439935 16 7 C16 7.66 16 8.32 16 9 C18.31 8.34 20.62 7.68 23 7 C23 7.99 23 8.98 23 10 C22.01 10.495 22.01 10.495 21 11 C22.65 11.66 24.3 12.32 26 13 C26 13.66 26 14.32 26 15 C19.92815363 13.39630636 14.93496211 10.17574365 9.625 6.9375 C8.69816406 6.38255859 7.77132812 5.82761719 6.81640625 5.25585938 C1.79290878 2.21882593 1.79290878 2.21882593 0 1 C0 0.67 0 0.34 0 0 Z " fill="#4B11BC" transform="translate(85,42)"/>
<path d="M0 0 C4.53847198 1.34927545 8.31932246 3.19159348 12.375 5.625 C13.43460938 6.25664063 14.49421875 6.88828125 15.5859375 7.5390625 C16.38257813 8.02117187 17.17921875 8.50328125 18 9 C14.86650268 10.04449911 14.01031744 9.93423645 11 9 C11 8.34 11 7.68 11 7 C10.401875 6.855625 9.80375 6.71125 9.1875 6.5625 C7.43849596 6.1127561 5.71322977 5.57107659 4 5 C4 4.34 4 3.68 4 3 C3.01 3 2.02 3 1 3 C0.67 2.01 0.34 1.02 0 0 Z M3 5 C3.33 5.99 3.66 6.98 4 8 C3.34 8.66 2.68 9.32 2 10 C-0.125 9.625 -0.125 9.625 -2 9 C-0.35 7.68 1.3 6.36 3 5 Z " fill="#500EC9" transform="translate(162,100)"/>
<path d="M0 0 C6.43557831 3.17023562 12.82195683 6.34933813 19 10 C18.01 11.485 18.01 11.485 17 13 C16.34 13 15.68 13 15 13 C14.67 12.01 14.34 11.02 14 10 C12.35448038 9.28272222 10.68577711 8.61674772 9 8 C8.34 7.34 7.68 6.68 7 6 C6.175 5.896875 5.35 5.79375 4.5 5.6875 C3.675 5.460625 2.85 5.23375 2 5 C0.84375 2.45703125 0.84375 2.45703125 0 0 Z " fill="#4917B5" transform="translate(132,201)"/>
<path d="M0 0 C0.66 0.33 1.32 0.66 2 1 C2 1.99 2 2.98 2 4 C1.34 4 0.68 4 0 4 C0.99 5.485 0.99 5.485 2 7 C4.58380177 7.25030977 4.58380177 7.25030977 7 7 C6.67 8.32 6.34 9.64 6 11 C1.69235185 9.43358249 -2.06171464 7.31663844 -6 5 C-2.25 1.125 -2.25 1.125 0 0 Z " fill="#4B15B9" transform="translate(115,171)"/>
<path d="M0 0 C0.33 0.99 0.66 1.98 1 3 C-4.83659532 8.44748897 -12.51729602 10.63704085 -20 13 C-17.85279954 10.68830812 -15.714762 9.09802011 -12.98828125 7.51953125 C-12.23095703 7.07802734 -11.47363281 6.63652344 -10.69335938 6.18164062 C-9.51483398 5.50391602 -9.51483398 5.50391602 -8.3125 4.8125 C-7.11657227 4.11737305 -7.11657227 4.11737305 -5.89648438 3.40820312 C-3.93336513 2.26794823 -1.96785129 1.13206227 0 0 Z " fill="#4C15BE" transform="translate(100,0)"/>
<path d="M0 0 C1.65 0 3.3 0 5 0 C5 0.66 5 1.32 5 2 C8.64793184 3.27253436 12.1936543 4.32829194 16 5 C16.33 5.99 16.66 6.98 17 8 C17.66 8.33 18.32 8.66 19 9 C19 9.66 19 10.32 19 11 C14.25652774 9.62309544 10.27474838 7.56160559 6.125 4.9375 C5.53203125 4.57333984 4.9390625 4.20917969 4.328125 3.83398438 C2.86464287 2.9218371 1.4292745 1.96486632 0 1 C0 0.67 0 0.34 0 0 Z " fill="#4F18BB" transform="translate(52,209)"/>
<path d="M0 0 C0.33 0 0.66 0 1 0 C1 2.64 1 5.28 1 8 C-2.7602985 7.41892368 -5.53035032 6.34800504 -8.8125 4.4375 C-9.60269531 3.98246094 -10.39289063 3.52742187 -11.20703125 3.05859375 C-11.79871094 2.70925781 -12.39039063 2.35992187 -13 2 C-11.125 1.375 -11.125 1.375 -9 1 C-8.34 1.66 -7.68 2.32 -7 3 C-3.70285207 2.67028521 -2.3773161 2.3773161 0 0 Z " fill="#4D12C0" transform="translate(206,163)"/>
<path d="M0 0 C4.73474097 1.6996506 8.96167111 4.13659027 13.3125 6.625 C14.05306641 7.04523438 14.79363281 7.46546875 15.55664062 7.8984375 C17.37269011 8.92948495 19.18656533 9.96436046 21 11 C21 11.33 21 11.66 21 12 C19.02 12 17.04 12 15 12 C15 11.01 15 10.02 15 9 C13.35 8.67 11.7 8.34 10 8 C10 7.34 10 6.68 10 6 C9.21625 5.855625 8.4325 5.71125 7.625 5.5625 C5 5 5 5 3 4 C3 3.34 3 2.68 3 2 C2.01 1.67 1.02 1.34 0 1 C0 0.67 0 0.34 0 0 Z " fill="#4C14B8" transform="translate(10,131)"/>
<path d="M0 0 C4.04301175 1.48518799 7.61146256 3.42877998 11.3125 5.625 C12.38113281 6.25664063 13.44976562 6.88828125 14.55078125 7.5390625 C15.76314453 8.26222656 15.76314453 8.26222656 17 9 C14 11 14 11 11 11 C10.67 9.35 10.34 7.7 10 6 C8.72125 5.7525 7.4425 5.505 6.125 5.25 C2.20826011 4.29503515 2.20826011 4.29503515 0.5 1.875 C0.335 1.25625 0.17 0.6375 0 0 Z " fill="#4E19B8" transform="translate(23,79)"/>
<path d="M0 0 C-2.78748519 1.67373751 -5.58064427 3.33776267 -8.375 5 C-9.1690625 5.47695312 -9.963125 5.95390625 -10.78125 6.4453125 C-11.92207031 7.12207031 -11.92207031 7.12207031 -13.0859375 7.8125 C-13.7876709 8.23144531 -14.4894043 8.65039062 -15.21240234 9.08203125 C-17 10 -17 10 -19 10 C-19 9.34 -19 8.68 -19 8 C-17.68 7.67 -16.36 7.34 -15 7 C-15 6.34 -15 5.68 -15 5 C-13.02 4.67 -11.04 4.34 -9 4 C-9 3.01 -9 2.02 -9 1 C-3.375 -1.125 -3.375 -1.125 0 0 Z " fill="#4815B2" transform="translate(80,74)"/>
<path d="M0 0 C2.31 0 4.62 0 7 0 C7.66 1.65 8.32 3.3 9 5 C10.65 4.67 12.3 4.34 14 4 C14.33 4.99 14.66 5.98 15 7 C12 8 12 8 9.08203125 6.6015625 C8.00308594 5.94929687 6.92414063 5.29703125 5.8125 4.625 C4.72582031 3.97789062 3.63914062 3.33078125 2.51953125 2.6640625 C1.68808594 2.11492187 0.85664062 1.56578125 0 1 C0 0.67 0 0.34 0 0 Z " fill="#4C16BD" transform="translate(71,220)"/>
<path d="M0 0 C2.8125 2.0625 2.8125 2.0625 5 4 C3.68 4 2.36 4 1 4 C1 3.34 1 2.68 1 2 C-0.4800841 2.11362262 -1.95910074 2.24122908 -3.4375 2.375 C-4.67306641 2.47941406 -4.67306641 2.47941406 -5.93359375 2.5859375 C-6.61550781 2.72257813 -7.29742187 2.85921875 -8 3 C-8.33 3.66 -8.66 4.32 -9 5 C-10.65 5 -12.3 5 -14 5 C-5.67474048 -1.93771626 -5.67474048 -1.93771626 0 0 Z " fill="#4A16B6" transform="translate(153,153)"/>
<path d="M0 0 C0.33 1.98 0.66 3.96 1 6 C-3.50802601 4.74194623 -6.4912812 3.09592835 -10 0 C-3.375 -1.125 -3.375 -1.125 0 0 Z " fill="#510FC8" transform="translate(207,107)"/>
<path d="M0 0 C-5.28 2.97 -10.56 5.94 -16 9 C-16.66 8.34 -17.32 7.68 -18 7 C-17.01 7 -16.02 7 -15 7 C-15 6.34 -15 5.68 -15 5 C-12.76504572 2.76504572 -10.97585464 1.9975209 -8.0625 0.8125 C-6.74958984 0.26529297 -6.74958984 0.26529297 -5.41015625 -0.29296875 C-3 -1 -3 -1 0 0 Z " fill="#4B14B4" transform="translate(128,226)"/>
<path d="M0 0 C2.31 0.33 4.62 0.66 7 1 C7 1.66 7 2.32 7 3 C8.423125 3.37125 8.423125 3.37125 9.875 3.75 C13 5 13 5 14.375 7.125 C14.58125 7.74375 14.7875 8.3625 15 9 C11.32305352 7.62859834 8.04681411 5.96304199 4.6875 3.9375 C3.80449219 3.41027344 2.92148438 2.88304687 2.01171875 2.33984375 C1.34785156 1.89769531 0.68398437 1.45554688 0 1 C0 0.67 0 0.34 0 0 Z " fill="#4B16B5" transform="translate(111,57)"/>
<path d="M0 0 C5.63470383 -0.5497272 8.38987758 1.04952165 13 4 C13 4.33 13 4.66 13 5 C11.02 5 9.04 5 7 5 C7 4.01 7 3.02 7 2 C5.35 2.66 3.7 3.32 2 4 C1.34 2.68 0.68 1.36 0 0 Z " fill="#5212CC" transform="translate(101,0)"/>
<path d="M0 0 C1.32 0.33 2.64 0.66 4 1 C2.04480616 2.17192047 0.0857461 3.3373929 -1.875 4.5 C-2.96554688 5.1496875 -4.05609375 5.799375 -5.1796875 6.46875 C-8 8 -8 8 -10 8 C-9.67 6.35 -9.34 4.7 -9 3 C-7.35 3.33 -5.7 3.66 -4 4 C-4 3.34 -4 2.68 -4 2 C-2.68 2 -1.36 2 0 2 C0 1.34 0 0.68 0 0 Z " fill="#4913B6" transform="translate(141,215)"/>
<path d="M0 0 C-2.84606889 2.3190191 -5.40490554 4.12314769 -9 5 C-11.8125 3.6875 -11.8125 3.6875 -14 2 C-14 1.67 -14 1.34 -14 1 C-9.29561575 -0.04541872 -4.79792331 0 0 0 Z " fill="#4D14B7" transform="translate(170,201)"/>
<path d="M0 0 C1.60781893 0.7631861 3.21113138 1.53587058 4.8125 2.3125 C5.70582031 2.74175781 6.59914063 3.17101562 7.51953125 3.61328125 C9.78931933 4.88221789 11.29248171 6.06556898 13 8 C9.75 8.3125 9.75 8.3125 6 8 C3.6875 5.5625 3.6875 5.5625 2 3 C1.34 2.67 0.68 2.34 0 2 C0 1.34 0 0.68 0 0 Z " fill="#4C14BE" transform="translate(56,157)"/>
<path d="M0 0 C1.32 0 2.64 0 4 0 C4 0.66 4 1.32 4 2 C5.98 1.34 7.96 0.68 10 0 C10 1.32 10 2.64 10 4 C10.66 4.33 11.32 4.66 12 5 C12 5.66 12 6.32 12 7 C7.39104317 5.68315519 3.85859765 3.84801255 0 1 C0 0.67 0 0.34 0 0 Z " fill="#4D16B9" transform="translate(156,83)"/>
<path d="M0 0 C0.99 0.33 1.98 0.66 3 1 C2.67 1.99 2.34 2.98 2 4 C2.639375 4.268125 3.27875 4.53625 3.9375 4.8125 C6 6 6 6 7 9 C2.69235185 7.43358249 -1.06171464 5.31663844 -5 3 C-5 2.67 -5 2.34 -5 2 C-3.35 2 -1.7 2 0 2 C0 1.34 0 0.68 0 0 Z " fill="#4A13B9" transform="translate(67,27)"/>
<path d="M0 0 C0.99 0.33 1.98 0.66 3 1 C3 1.66 3 2.32 3 3 C1.54462432 3.83848804 0.08559627 4.67063934 -1.375 5.5 C-2.59316406 6.19609375 -2.59316406 6.19609375 -3.8359375 6.90625 C-6 8 -6 8 -8 8 C-6.25 3.125 -6.25 3.125 -4 2 C-1.875 2.4375 -1.875 2.4375 0 3 C0 2.01 0 1.02 0 0 Z " fill="#4915BA" transform="translate(95,61)"/>
<path d="M0 0 C1.79398267 0.95399078 3.58511655 1.91334026 5.375 2.875 C6.37273437 3.40867188 7.37046875 3.94234375 8.3984375 4.4921875 C11 6 11 6 13 8 C11.3934324 7.74379316 9.7897517 7.46944129 8.1875 7.1875 C7.29417969 7.03667969 6.40085937 6.88585937 5.48046875 6.73046875 C2.77682454 5.93427746 1.65024056 5.26428356 0 3 C0 2.01 0 1.02 0 0 Z " fill="#4B14BD" transform="translate(115,191)"/>
<path d="M0 0 C3.59391114 1.33488128 6.75490696 2.96022723 10 5 C7 6 7 6 4.8125 5.0625 C4.214375 4.711875 3.61625 4.36125 3 4 C3 4.99 3 5.98 3 7 C2.01 7 1.02 7 0 7 C0 4.69 0 2.38 0 0 Z " fill="#4D11BF" transform="translate(0,125)"/>
<path d="M0 0 C6.49677419 0.61290323 6.49677419 0.61290323 8.625 2.25 C9.07875 2.8275 9.5325 3.405 10 4 C10.886875 4.886875 11.77375 5.77375 12.6875 6.6875 C13.450625 7.450625 14.21375 8.21375 15 9 C11.32305352 7.62859834 8.04681411 5.96304199 4.6875 3.9375 C3.80449219 3.41027344 2.92148438 2.88304687 2.01171875 2.33984375 C1.34785156 1.89769531 0.68398437 1.45554688 0 1 C0 0.67 0 0.34 0 0 Z " fill="#4A1BAF" transform="translate(85,42)"/>
<path d="M0 0 C5.31027254 1.46032495 9.46330032 3.98320986 14 7 C11 8 11 8 8 8 C8 7.34 8 6.68 8 6 C7.01 6 6.02 6 5 6 C3.0750353 4.17806158 1.62464469 2.10764717 0 0 Z " fill="#4C17B8" transform="translate(100,183)"/>
<path d="M0 0 C0.66 0.33 1.32 0.66 2 1 C1.21753906 1.47050781 0.43507813 1.94101562 -0.37109375 2.42578125 C-1.38300781 3.04839844 -2.39492188 3.67101563 -3.4375 4.3125 C-4.44683594 4.92738281 -5.45617187 5.54226562 -6.49609375 6.17578125 C-9.26270603 7.82051965 -9.26270603 7.82051965 -10 11 C-10.99 10.67 -11.98 10.34 -13 10 C-11.64649404 5.93948213 -9.72487336 5.35771547 -6.0625 3.25 C-4.98097656 2.61578125 -3.89945313 1.9815625 -2.78515625 1.328125 C-1.86605469 0.88984375 -0.94695313 0.4515625 0 0 Z " fill="#4A1BB3" transform="translate(19,47)"/>
<path d="M0 0 C1.65 0.33 3.3 0.66 5 1 C2.08461547 3.48347571 -0.12912578 4.81117687 -4 5 C-6.8125 3.5625 -6.8125 3.5625 -9 2 C-5.94736336 1.01879536 -4.05263664 1.01879536 -1 2 C-0.67 1.34 -0.34 0.68 0 0 Z " fill="#4A17B3" transform="translate(106,234)"/>
<path d="M0 0 C0 1.32 0 2.64 0 4 C-0.99 4 -1.98 4 -3 4 C-2.67 4.99 -2.34 5.98 -2 7 C-4.475 6.01 -4.475 6.01 -7 5 C-6.625 3.0625 -6.625 3.0625 -6 1 C-4 0 -4 0 0 0 Z " fill="#4F0DC5" transform="translate(128,178)"/>
<path d="M0 0 C0 0.66 0 1.32 0 2 C0.66 2 1.32 2 2 2 C2 2.66 2 3.32 2 4 C1.34 4 0.68 4 0 4 C0 4.66 0 5.32 0 6 C-2.91517292 4.92598892 -4.77810176 4.22189824 -7 2 C-4.35261084 0.5393715 -3.10551666 0 0 0 Z " fill="#5011C3" transform="translate(140,68)"/>
<path d="M0 0 C-1.6188996 1.03048037 -3.24532489 2.04914678 -4.875 3.0625 C-5.77992188 3.63097656 -6.68484375 4.19945312 -7.6171875 4.78515625 C-8.40351563 5.18605469 -9.18984375 5.58695313 -10 6 C-10.66 5.67 -11.32 5.34 -12 5 C-11.01 4.67 -10.02 4.34 -9 4 C-9 3.01 -9 2.02 -9 1 C-5.47051709 -0.66670026 -3.71727674 -1.13583456 0 0 Z " fill="#4A15B6" transform="translate(197,186)"/>
<path d="M0 0 C1.62974564 0.76074843 3.25366648 1.53398433 4.875 2.3125 C5.77992188 2.74175781 6.68484375 3.17101562 7.6171875 3.61328125 C10 5 10 5 12 8 C10.35 8.66 8.7 9.32 7 10 C7.66 8.68 8.32 7.36 9 6 C6.69 5.34 4.38 4.68 2 4 C2 3.34 2 2.68 2 2 C1.34 2 0.68 2 0 2 C0 1.34 0 0.68 0 0 Z " fill="#4C1DAC" transform="translate(190,175)"/>
<path d="M0 0 C0.721875 0.144375 1.44375 0.28875 2.1875 0.4375 C4.96513657 1.0439459 4.96513657 1.0439459 7.6875 1.25 C10 2 10 2 11.3125 4.5625 C11.6528125 5.7690625 11.6528125 5.7690625 12 7 C7.69235185 5.43358249 3.93828536 3.31663844 0 1 C0 0.67 0 0.34 0 0 Z " fill="#4A16B1" transform="translate(140,74)"/>
<path d="M0 0 C1.98 0 3.96 0 6 0 C6 0.99 6 1.98 6 3 C6.928125 3.2165625 6.928125 3.2165625 7.875 3.4375 C10 4 10 4 12 5 C12 5.66 12 6.32 12 7 C7.39104317 5.68315519 3.85859765 3.84801255 0 1 C0 0.67 0 0.34 0 0 Z " fill="#4D19B9" transform="translate(85,228)"/>
<path d="M0 0 C4.4571874 0.26218749 6.51522698 0.57711289 9.9375 3.5625 C10.618125 4.366875 11.29875 5.17125 12 6 C8.55639368 6 7.25204608 5.20408468 4.3125 3.5 C3.50425781 3.0359375 2.69601563 2.571875 1.86328125 2.09375 C1.24839844 1.7328125 0.63351563 1.371875 0 1 C0 0.67 0 0.34 0 0 Z " fill="#4B19B4" transform="translate(24,126)"/>
<path d="M0 0 C1.32 0 2.64 0 4 0 C4 0.66 4 1.32 4 2 C4.763125 1.896875 5.52625 1.79375 6.3125 1.6875 C7.199375 1.790625 8.08625 1.89375 9 2 C10.8125 4.5 10.8125 4.5 12 7 C7.69235185 5.43358249 3.93828536 3.31663844 0 1 C0 0.67 0 0.34 0 0 Z " fill="#4B19B6" transform="translate(12,119)"/>
<path d="M0 0 C3.63 1.98 7.26 3.96 11 6 C9 7 9 7 6 7 C3.8125 6 3.8125 6 2 5 C2 4.01 2 3.02 2 2 C1.34 2 0.68 2 0 2 C0 1.34 0 0.68 0 0 Z " fill="#4E15BC" transform="translate(186,46)"/>
<path d="M0 0 C3.96 1.98 7.92 3.96 12 6 C8.86650268 7.04449911 8.01031744 6.93423645 5 6 C5 5.34 5 4.68 5 4 C4.360625 3.896875 3.72125 3.79375 3.0625 3.6875 C2.381875 3.460625 1.70125 3.23375 1 3 C0.67 2.01 0.34 1.02 0 0 Z " fill="#4B16BA" transform="translate(168,103)"/>
<path d="M0 0 C4.23092172 -0.36265043 6.62637846 0.39749195 10 3 C10 3.99 10 4.98 10 6 C6.00499382 4.6302836 3.19990508 2.74277578 0 0 Z " fill="#4B16B3" transform="translate(180,97)"/>
<path d="M0 0 C3.55780196 0.60990891 6.6828589 1.5783681 10 3 C10 3.99 10 4.98 10 6 C6.40992874 4.66654496 3.20429093 3.1056769 0 1 C0 0.67 0 0.34 0 0 Z " fill="#4E1BB2" transform="translate(12,186)"/>
<path d="M0 0 C1.64936913 0.78427352 3.29441127 1.57765259 4.9375 2.375 C5.85402344 2.81585938 6.77054688 3.25671875 7.71484375 3.7109375 C10 5 10 5 11 7 C7.85262818 6.30058404 4.97411124 5.23921302 2 4 C2 3.34 2 2.68 2 2 C1.34 2 0.68 2 0 2 C0 1.34 0 0.68 0 0 Z " fill="#5018B9" transform="translate(10,71)"/>
<path d="M0 0 C4.35522853 0.50642192 7.44239635 1.38411497 11 4 C11 4.66 11 5.32 11 6 C6.49197399 4.74194623 3.5087188 3.09592835 0 0 Z " fill="#4917B0" transform="translate(74,36)"/>
<path d="M0 0 C3.37503669 1.1858237 5.64722731 2.27573689 8 5 C6.02 5.33 4.04 5.66 2 6 C1.34 4.02 0.68 2.04 0 0 Z " fill="#4D13BD" transform="translate(180,110)"/>
<path d="M0 0 C1.32 0.66 2.64 1.32 4 2 C3.67 3.32 3.34 4.64 3 6 C1.68 5.67 0.36 5.34 -1 5 C-0.67 3.35 -0.34 1.7 0 0 Z " fill="#5111C6" transform="translate(10,54)"/>
<path d="M0 0 C3.59391114 1.33488128 6.75490696 2.96022723 10 5 C8.68 5.33 7.36 5.66 6 6 C6 5.34 6 4.68 6 4 C3.03 3.505 3.03 3.505 0 3 C0 2.01 0 1.02 0 0 Z " fill="#501BB7" transform="translate(64,43)"/>
<path d="M0 0 C2.02045442 0.60183749 4.02111039 1.27306096 6 2 C6.33 2.66 6.66 3.32 7 4 C5.35 4.66 3.7 5.32 2 6 C1.67 5.34 1.34 4.68 1 4 C1.33 3.34 1.66 2.68 2 2 C1.34 2 0.68 2 0 2 C0 1.34 0 0.68 0 0 Z " fill="#4D13C1" transform="translate(48,153)"/>
<path d="M0 0 C2.97 1.65 5.94 3.3 9 5 C9 5.33 9 5.66 9 6 C7.35 6 5.7 6 4 6 C4 5.34 4 4.68 4 4 C3.34 4 2.68 4 2 4 C2 3.34 2 2.68 2 2 C1.34 2 0.68 2 0 2 C0 1.34 0 0.68 0 0 Z " fill="#4B18B9" transform="translate(32,143)"/>
<path d="M0 0 C0.66 0 1.32 0 2 0 C2 0.66 2 1.32 2 2 C2.99 2.33 3.98 2.66 5 3 C0.25 6 0.25 6 -2 6 C-1.34 4.02 -0.68 2.04 0 0 Z " fill="#4A11B9" transform="translate(82,67)"/>
<path d="M0 0 C1.32 0 2.64 0 4 0 C4 0.66 4 1.32 4 2 C5.65 2.33 7.3 2.66 9 3 C9 3.66 9 4.32 9 5 C5.22454612 3.90931332 2.52956528 3.0916909 0 0 Z " fill="#4919B6" transform="translate(140,193)"/>
<path d="M0 0 C0.6875 2.0625 0.6875 2.0625 1 4 C-1.02045442 3.39816251 -3.02111039 2.72693904 -5 2 C-5.33 1.34 -5.66 0.68 -6 0 C-3 -1 -3 -1 0 0 Z " fill="#4915B3" transform="translate(207,109)"/>
<path d="M0 0 C2.4375 0.375 2.4375 0.375 5 1 C5.33 1.66 5.66 2.32 6 3 C4.02 3.33 2.04 3.66 0 4 C0 2.68 0 1.36 0 0 Z " fill="#4F13C6" transform="translate(34,86)"/>
<path d="M0 0 C3.96 1.98 3.96 1.98 8 4 C5.53721199 5.231394 3.7204945 5.07159196 1 5 C0.67 3.35 0.34 1.7 0 0 Z " fill="#4E16C2" transform="translate(177,41)"/>
</svg>
